<svg xmlns="http://www.w3.org/2000/svg" width="249" height="76" viewBox="0 0 249 76" fill="none">
  <g clip-path="url(#clip0_248_586)">
    <path d="M53.2401 57.4999C51.7401 57.4999 50.5801 57.0899 49.7601 56.2799C48.9301 55.4599 48.4501 54.6699 48.3101 53.8999C48.1701 53.1299 48.1001 52.0599 48.1001 50.6899C48.1001 49.3199 48.1701 48.1799 48.3001 47.4499C48.4301 46.7199 48.7801 46.0699 49.3601 45.4999C49.9301 44.9299 50.5301 44.5199 51.1601 44.2699C51.7901 44.0099 52.4801 43.8799 53.2501 43.8799C54.5801 43.8799 55.7101 44.2599 56.6401 45.0299C57.5701 45.7999 58.1501 46.9199 58.3901 48.3999H55.0001C54.8701 47.8999 54.6801 47.5099 54.4301 47.2399C54.1801 46.9599 53.7901 46.8199 53.2701 46.8199C52.9701 46.8199 52.7001 46.8699 52.4901 46.9599C52.2701 47.0499 52.0901 47.1999 51.9401 47.3999C51.7901 47.5999 51.6701 47.9199 51.5801 48.3699C51.4901 48.8099 51.4501 49.5899 51.4501 50.6899C51.4501 51.7899 51.4901 52.5999 51.5701 53.0099C51.6501 53.4199 51.8001 53.7799 52.0501 54.0899C52.2901 54.3999 52.7001 54.5599 53.2901 54.5599C53.8001 54.5599 54.1801 54.4499 54.4401 54.2199C54.7001 53.9899 54.8901 53.6799 55.0201 53.2899H58.4101C58.1701 54.6699 57.5901 55.7199 56.6701 56.4299C55.7501 57.1399 54.6201 57.4999 53.2701 57.4999" fill="black"/>
    <path d="M65.0302 57.4997C63.5802 57.4997 62.3702 57.0597 61.3802 56.1697C60.4002 55.2897 59.9102 54.1197 59.9102 52.6797V43.9897H63.2402V52.5997C63.2402 53.2097 63.4002 53.6897 63.7102 54.0397C64.0202 54.3897 64.4602 54.5597 65.0302 54.5597C65.6002 54.5597 66.0302 54.3897 66.3602 54.0497C66.6902 53.7097 66.8502 53.2297 66.8502 52.5997V43.9897H70.1802V52.6797C70.1802 54.1097 69.6802 55.2697 68.6902 56.1597C67.6902 57.0497 66.4702 57.4897 65.0302 57.4897" fill="black"/>
    <path d="M72.7002 57.3998V43.9998H76.0302V54.4698H81.7202V57.3998H72.7002Z" fill="black"/>
    <path d="M86.9999 43.9998H83.6699V57.4098H86.9999V43.9998Z" fill="black"/>
    <path d="M97.4102 57.3998L93.0702 50.6698V57.3998H89.7402V43.9998H92.6502L96.9902 50.7298V43.9998H100.32V57.3998H97.4102Z" fill="black"/>
    <path d="M110.64 57.3997L110.01 55.3897H105.84L105.17 57.3997H101.69L106.62 43.9897H109.19L114.12 57.3997H110.64ZM107.99 49.0697L106.77 52.6397H109.13L107.99 49.0697Z" fill="black"/>
    <path d="M122.35 57.3997L119.95 52.3997H118.83V57.3997H115.5V43.9897H120.87C122.32 43.9897 123.45 44.4097 124.27 45.2597C125.09 46.1097 125.5 47.1197 125.5 48.2997C125.5 49.1397 125.28 49.8597 124.85 50.4497C124.42 51.0497 123.9 51.4897 123.29 51.7897L126.22 57.3897H122.36L122.35 57.3997ZM120.71 46.9397H118.82V49.6497H120.71C121.15 49.6497 121.51 49.5197 121.77 49.2497C122.03 48.9797 122.16 48.6597 122.16 48.2997C122.16 47.9397 122.03 47.6197 121.77 47.3497C121.51 47.0797 121.16 46.9497 120.71 46.9497" fill="black"/>
    <path d="M133.97 51.9398V57.3998H130.63V51.9398L126.54 43.9998H130.18L132.31 48.9798L134.42 43.9998H138.06L133.97 51.9398Z" fill="black"/>
    <path d="M57.1801 73.6198C56.6501 74.1698 56.0501 74.5598 55.4001 74.7898C54.7501 75.0198 54.0301 75.1298 53.2401 75.1298C51.7401 75.1298 50.5801 74.7198 49.7601 73.9098C48.9401 73.0998 48.4501 72.2998 48.3101 71.5298C48.1701 70.7598 48.1001 69.6898 48.1001 68.3198C48.1001 66.9498 48.1701 65.8098 48.3001 65.0798C48.4301 64.3498 48.7901 63.6998 49.3601 63.1298C49.9301 62.5698 50.5201 62.1598 51.1401 61.8998C51.7501 61.6398 52.4601 61.5098 53.2401 61.5098C54.8501 61.5098 56.0901 61.9398 56.9601 62.7898C57.8301 63.6398 58.3501 64.6998 58.5301 65.9498H55.1801C55.0401 65.4198 54.8201 65.0398 54.5301 64.7998C54.2401 64.5598 53.8101 64.4398 53.2401 64.4398C52.9501 64.4398 52.6901 64.4898 52.4701 64.5998C52.2501 64.7098 52.0601 64.8598 51.9001 65.0598C51.7401 65.2598 51.6201 65.5698 51.5501 65.9898C51.4701 66.4098 51.4401 67.1798 51.4401 68.3098C51.4401 69.4398 51.4801 70.2198 51.5501 70.6398C51.6201 71.0698 51.7801 71.4298 52.0201 71.7298C52.2501 72.0298 52.6601 72.1798 53.2501 72.1798C53.9101 72.1798 54.3701 72.0498 54.6201 71.7798C54.8801 71.5198 55.0401 71.2598 55.1301 71.0198C55.2101 70.7798 55.2501 70.5098 55.2501 70.2198V70.0298H53.2501V67.2898H58.5601V69.1498C58.5601 70.2798 58.4601 71.1698 58.2601 71.8298C58.0601 72.4898 57.7101 73.0798 57.1901 73.6098" fill="black"/>
    <path d="M67.7104 75.0299L65.3103 70.0299H64.1904V75.0299H60.8604V61.6199H66.2304C67.6804 61.6199 68.8103 62.0399 69.6303 62.8899C70.4503 63.7399 70.8604 64.7499 70.8604 65.9299C70.8604 66.7699 70.6404 67.4899 70.2104 68.0799C69.7803 68.6799 69.2604 69.1199 68.6504 69.4199L71.5804 75.0199H67.7204L67.7104 75.0299ZM66.0704 64.5699H64.1804V67.2799H66.0704C66.5104 67.2799 66.8703 67.1499 67.1303 66.8799C67.3903 66.6099 67.5203 66.2899 67.5203 65.9299C67.5203 65.5699 67.3903 65.2499 67.1303 64.9799C66.8703 64.7099 66.5204 64.5699 66.0704 64.5699Z" fill="black"/>
    <path d="M81.7801 73.6198C81.2701 74.1198 80.7101 74.4998 80.1001 74.7498C79.4901 74.9998 78.7901 75.1298 77.9901 75.1298C76.4801 75.1298 75.3101 74.7198 74.4901 73.9098C73.6701 73.0898 73.1801 72.2998 73.0401 71.5298C72.9001 70.7598 72.8301 69.6898 72.8301 68.3198C72.8301 66.9498 72.9001 65.8098 73.0301 65.0798C73.1601 64.3498 73.5201 63.6898 74.1001 63.1198C74.6801 62.5498 75.2701 62.1398 75.8801 61.8898C76.4901 61.6398 77.1901 61.5098 77.9901 61.5098C79.5001 61.5098 80.6701 61.9198 81.4901 62.7298C82.3101 63.5398 82.8001 64.3398 82.9401 65.1098C83.0801 65.8798 83.1501 66.9498 83.1501 68.3198C83.1501 69.6898 83.0801 70.8298 82.9501 71.5598C82.8201 72.2898 82.4301 72.9798 81.7801 73.6198ZM79.3201 65.0298C79.1901 64.8598 79.0101 64.7098 78.7801 64.6098C78.5501 64.4998 78.2801 64.4498 77.9901 64.4498C77.7001 64.4498 77.4401 64.4998 77.2101 64.6098C76.9801 64.7198 76.7901 64.8698 76.6301 65.0698C76.4701 65.2698 76.3501 65.5798 76.2801 65.9998C76.2001 66.4198 76.1701 67.1898 76.1701 68.3198C76.1701 69.4498 76.2101 70.2198 76.2801 70.6298C76.3601 71.0398 76.4701 71.3498 76.6201 71.5398C76.7701 71.7298 76.9701 71.8898 77.2101 72.0098C77.4501 72.1298 77.7101 72.1898 77.9901 72.1898C78.5701 72.1898 78.9901 72.0298 79.2301 71.7198C79.4701 71.4098 79.6301 71.0398 79.7001 70.6298C79.7801 70.2198 79.8201 69.4498 79.8201 68.3198C79.8201 67.1898 79.7801 66.4298 79.7001 66.0098C79.6201 65.5798 79.5001 65.2598 79.3201 65.0298Z" fill="black"/>
    <path d="M90.35 75.1199C88.9 75.1199 87.69 74.6799 86.7 73.7899C85.72 72.9099 85.23 71.7399 85.23 70.2999V61.6099H88.56V70.2199C88.56 70.8299 88.72 71.3099 89.03 71.6599C89.34 72.0099 89.78 72.1799 90.35 72.1799C90.92 72.1799 91.35 72.0099 91.68 71.6699C92.01 71.3299 92.17 70.8499 92.17 70.2199V61.6099H95.5V70.2999C95.5 71.7299 95 72.8899 94.01 73.7799C93.01 74.6699 91.79 75.1099 90.35 75.1099" fill="black"/>
    <path d="M103.39 70.2299H101.35V75.0199H98.02V61.6099H103.39C104.84 61.6099 105.97 62.0299 106.79 62.8799C107.61 63.7299 108.02 64.7399 108.02 65.9199C108.02 67.0999 107.61 68.0999 106.78 68.9499C105.95 69.7999 104.83 70.2299 103.39 70.2299ZM103.24 64.5699H101.35V67.2799H103.24C103.68 67.2799 104.04 67.1499 104.3 66.8799C104.56 66.6099 104.69 66.2899 104.69 65.9299C104.69 65.5699 104.56 65.2499 104.3 64.9799C104.04 64.7099 103.69 64.5699 103.24 64.5699Z" fill="black"/>
    <path d="M68.0201 19.4098C68.9001 18.8298 69.7001 18.0398 70.4001 17.0598C71.1101 16.0698 71.4601 14.8098 71.4601 13.2698C71.4601 10.5398 70.5901 8.3598 68.8601 6.7398C67.1201 5.1098 64.6501 4.2998 61.4501 4.2998H44.6601L48.4301 7.6198V17.1598H33.1401V22.5098H48.4301V35.3698H62.1001C65.0101 35.3698 67.3701 34.5698 69.1801 32.9698C70.9901 31.3698 71.8901 29.1098 71.8901 26.1998C71.8901 24.2798 71.5201 22.8398 70.7901 21.8698C70.0601 20.9098 69.1301 20.0898 68.0101 19.4198M56.1501 11.1398H60.9601C61.9301 11.1398 62.6401 11.3798 63.0801 11.8798C63.5201 12.3698 63.7401 12.9698 63.7401 13.6698C63.7401 14.3698 63.5201 14.9598 63.0801 15.4598C62.6401 15.9498 61.9301 16.1998 60.9601 16.1998H56.1501V11.1498V11.1398ZM63.4901 27.7098C63.0301 28.2498 62.3201 28.5198 61.3501 28.5198H56.1501V23.0298H61.3501C62.3201 23.0298 63.0301 23.2998 63.4901 23.8398C63.9401 24.3798 64.1701 25.0198 64.1701 25.7498C64.1701 26.4798 63.9401 27.1598 63.4901 27.6998" fill="#DF1F26"/>
    <path d="M74.4502 35.3498H95.8002V28.5498H82.1702V23.0698H90.9702L93.0202 16.2698H82.1702V11.0798H95.8002V4.28979H74.4502V35.3498Z" fill="#DF1F26"/>
    <path d="M108.55 4.28979L97.1304 35.3498H105.2L106.75 30.6898H116.41L117.86 35.3498H125.93L114.51 4.28979H108.55ZM108.91 24.3298L111.73 16.0498L114.38 24.3298H108.91Z" fill="#DF1F26"/>
    <path d="M149.19 19.2498C150.19 17.8698 150.69 16.2098 150.69 14.2598C150.69 11.5298 149.74 9.18979 147.84 7.22979C145.95 5.26979 143.32 4.28979 139.97 4.28979H123.76L127.53 7.60979V35.3498H135.25V23.7598H137.85L143.41 35.3498H152.36L145.57 22.3698C146.98 21.6698 148.18 20.6398 149.19 19.2498ZM142.07 16.4598C141.47 17.0898 140.65 17.3998 139.62 17.3998H135.25V11.1298H139.62C140.65 11.1298 141.47 11.4398 142.07 12.0698C142.67 12.6898 142.97 13.4298 142.97 14.2698C142.97 15.1098 142.67 15.8498 142.07 16.4698" fill="#DF1F26"/>
    <path d="M169.06 25.8298C168.77 26.7398 168.32 27.4598 167.71 27.9898C167.11 28.5198 166.22 28.7898 165.04 28.7898C163.69 28.7898 162.73 28.4298 162.17 27.6998C161.61 26.9698 161.24 26.1398 161.07 25.1898C160.89 24.2498 160.81 22.4498 160.81 19.8098C160.81 17.1698 160.91 15.4598 161.12 14.4298C161.32 13.3998 161.61 12.6498 161.96 12.1898C162.32 11.7198 162.74 11.3798 163.24 11.1698C163.74 10.9498 164.34 10.8398 165.05 10.8398C166.26 10.8398 167.15 11.1598 167.74 11.7998C168.33 12.4398 168.77 13.3398 169.06 14.4898H176.91C176.35 11.0698 175 8.46978 172.85 6.68979C170.7 4.91979 168.09 4.02979 165 4.02979C163.24 4.02979 161.63 4.32979 160.17 4.91979C158.72 5.51979 157.32 6.46978 156 7.76978C154.68 9.07978 153.86 10.5798 153.55 12.2798C153.24 13.9798 153.09 16.4898 153.09 19.7998C153.09 23.1098 153.25 25.4398 153.57 27.2298C153.89 29.0198 155.01 30.8498 156.92 32.7398C158.83 34.6298 161.52 35.5698 164.99 35.5698C168.11 35.5698 170.73 34.7398 172.87 33.0898C175 31.4398 176.35 29.0098 176.91 25.8198H169.06V25.8298Z" fill="#DF1F26"/>
    <path d="M187.28 4.30981L175.86 35.3698H183.93L185.48 30.7098H195.14L196.59 35.3698H204.66L193.24 4.30981H187.28ZM187.64 24.3498L190.46 16.0698L193.11 24.3498H187.64Z" fill="#DF1F26"/>
    <path d="M224.34 4.30981H201.19V11.1098H208.9V35.3698H216.62V11.1098H224.34V4.30981Z" fill="#DF1F26"/>
    <path d="M247.85 21.8898C247.48 20.7698 246.75 19.6798 245.66 18.6198C244.57 17.5598 242.64 16.8398 239.88 16.4598L236.08 15.9398C235.52 15.8798 235.08 15.7698 234.76 15.6098C234.44 15.4498 234.16 15.2598 233.94 15.0398C233.72 14.8198 233.56 14.5998 233.45 14.3898C233.35 14.1698 233.3 13.8998 233.3 13.5798C233.3 12.7998 233.62 12.1198 234.25 11.5498C234.88 10.9798 235.83 10.6998 237.1 10.6998H237.67C238.96 10.6998 240.04 10.8598 240.89 11.1798C241.74 11.4998 242.47 11.9498 243.05 12.5298L247.91 7.72978C246.55 6.38978 245.03 5.43979 243.34 4.87979C241.65 4.30979 239.64 4.02979 237.32 4.02979C233.79 4.02979 230.99 4.93978 228.93 6.76978C226.87 8.59978 225.84 10.9498 225.84 13.8298C225.84 16.5298 226.55 18.5998 227.98 20.0398C229.41 21.4798 231.52 22.3998 234.32 22.8098L238.12 23.3298C238.65 23.3898 239.08 23.4898 239.4 23.6298C239.72 23.7798 240.04 24.0098 240.35 24.3298C240.66 24.6498 240.81 25.1998 240.81 25.9898C240.81 27.8498 239.31 28.7798 236.31 28.7798C234.9 28.7798 233.57 28.6098 232.32 28.2598C231.07 27.9098 230.06 27.3598 229.3 26.6098L224.36 31.4898C225.89 33.0298 227.6 34.0998 229.5 34.6998C231.4 35.2898 233.66 35.5998 236.28 35.5998C239.75 35.5998 242.64 34.7198 244.96 32.9798C247.27 31.2398 248.42 28.8598 248.42 25.8298C248.42 24.3198 248.23 22.9998 247.87 21.8798" fill="#DF1F26"/>
    <path d="M32.53 30.8299C32.53 32.2499 31.37 33.4099 29.95 33.4099H7.93C6.51 33.4099 5.35 32.2499 5.35 30.8299V8.80988C5.35 7.38988 6.51 6.22988 7.93 6.22988H29.96C31.38 6.22988 32.54 7.38988 32.54 8.80988V12.2499H37.89V8.80988C37.89 4.43988 34.34 0.879883 29.97 0.879883H7.93C3.55 0.879883 0 4.42988 0 8.80988V30.8399C0 35.2099 3.55 38.7699 7.93 38.7699H29.96C34.33 38.7699 37.88 35.2099 37.88 30.8399V27.4099H32.53V30.8399V30.8299Z" fill="#DF1F26"/>
    <path d="M24.1499 11.5398H10.9199V17.1498H24.1499C25.6999 17.1498 26.9599 15.8898 26.9599 14.3398C26.9599 12.7898 25.6999 11.5298 24.1499 11.5298" fill="#DF1F26"/>
    <path d="M24.1499 22.48H10.9199V28.09H24.1499C25.6999 28.09 26.9599 26.83 26.9599 25.28C26.9599 23.73 25.6999 22.47 24.1499 22.47" fill="#DF1F26"/>
    <path d="M38.5102 43.8799H33.1602V75.1199H38.5102V43.8799Z" fill="#DF1F26"/>
  </g>
  <defs>
    <clipPath id="clip0_248_586">
      <rect width="248.4" height="74.24" fill="white" transform="translate(0 0.879883)"/>
    </clipPath>
  </defs>
</svg>