<svg width="48" height="48" viewBox="0 0 48 48" fill="none" xmlns="http://www.w3.org/2000/svg">
<circle cx="24" cy="24" r="24" fill="#E00122"/>
<path d="M28.2798 13.0076H23.3223V14.4551H28.2798V13.0076Z" fill="white"/>
<path d="M19.66 27.0575C19.66 23.11 21.9675 19.9175 25.3775 18.1275V16.1875C20.4775 17.7925 16.9625 21.935 16.9625 27.0575C16.9625 29.59 17.6225 31.57 18.7725 33.3425C15.7425 32.81 14.4375 30.6975 14.4375 27.0575V13H9V14.4475H11.5975V27.0575C11.5975 32.1075 14.89 34.735 19.9025 34.8175C21.82 36.9475 24.5325 38.435 27.615 38.875C27.8575 38.9125 28.09 38.935 28.2825 38.9525V37.515C28.035 37.4725 27.8625 37.4325 27.8625 37.4325C23.14 36.23 19.6575 32.2125 19.6575 27.0575H19.66Z" fill="white"/>
<path d="M31.1224 27.0574V16.8849C34.4749 16.8849 36.4874 18.8799 36.5949 21.1649L37.8424 21.4099L38.7149 16.3224L37.2299 16.0324L37.0474 17.1174C34.3699 15.7699 32.1224 15.5249 29.8899 15.5249C29.3424 15.5249 28.8024 15.5574 28.2724 15.6199L28.2824 27.0549C28.2824 29.2799 27.9599 30.5924 26.8224 31.9899C25.5699 30.6074 25.3724 29.0399 25.3724 27.0549C25.3724 25.9974 25.3724 20.9674 25.3724 20.9674C23.7099 22.5749 22.6724 24.5724 22.6724 27.0549C22.6724 32.2524 26.6849 36.3099 31.5824 36.3099C33.2649 36.3099 35.2024 35.8974 36.6149 34.9374L36.2574 34.4049C34.3474 35.3799 30.4724 35.6049 28.1024 33.3899C30.1049 31.9124 31.1149 30.0224 31.1149 27.0549L31.1224 27.0574Z" fill="white"/>
</svg>
