<svg width="1028" height="897" viewBox="0 0 1028 897" fill="none" xmlns="http://www.w3.org/2000/svg">
<path d="M666.372 0.262268H495.025V50.2924H666.372V0.262268Z" fill="#C00005"/>
<path d="M368.443 485.871C368.443 349.433 448.198 239.091 566.058 177.223V110.17C396.699 165.644 275.209 308.822 275.209 485.871C275.209 573.403 298.021 641.838 337.768 703.101C233.042 684.696 187.937 611.681 187.937 485.871V0H0V50.0302H89.7778V485.871C89.7778 660.415 203.577 751.23 376.825 754.081C443.1 827.701 536.852 879.114 643.393 894.321C651.775 895.617 659.81 896.395 666.464 897V847.315C657.91 845.847 651.947 844.464 651.947 844.464C488.723 802.902 368.357 664.044 368.357 485.871H368.443Z" fill="#C00005"/>
<path d="M764.613 485.87V134.277C880.486 134.277 950.044 203.23 953.76 282.207L996.877 290.675L1027.03 114.835L975.707 104.811L969.399 142.312C876.857 95.7386 799.176 87.2706 722.014 87.2706C703.09 87.2706 684.426 88.3939 666.108 90.5541L666.453 485.784C666.453 562.687 655.307 608.051 615.991 656.353C572.701 608.569 565.875 554.392 565.875 485.784C565.875 449.233 565.875 275.381 565.875 275.381C508.413 330.941 472.554 399.981 472.554 485.784C472.554 665.426 611.239 805.666 780.512 805.666C838.664 805.666 905.63 791.408 954.451 758.228L942.095 739.823C876.079 773.522 742.147 781.299 660.232 704.741C729.445 653.674 764.354 588.35 764.354 485.784L764.613 485.87Z" fill="#C00005"/>
</svg>
