<svg width="390" height="27" viewBox="0 0 390 27" fill="none" xmlns="http://www.w3.org/2000/svg">
<path d="M5.83203 14.6172L4.2832 18.083C4.17318 18.3454 4.24089 18.5358 4.48633 18.6543C4.73177 18.7728 5.17188 18.8701 5.80664 18.9463L5.66699 20H0.423828L0.563477 18.9463C1.11361 18.8447 1.53255 18.7389 1.82031 18.6289C2.11654 18.5189 2.31966 18.3369 2.42969 18.083L8.28223 4.80371C8.52767 4.60905 8.78581 4.43555 9.05664 4.2832C9.33594 4.1224 9.61523 3.97852 9.89453 3.85156C10.1823 3.72461 10.4658 3.61458 10.7451 3.52148C11.0244 3.42839 11.2868 3.34798 11.5322 3.28027L14.4521 18.083C14.4775 18.2015 14.5114 18.3073 14.5537 18.4004C14.6045 18.4935 14.6764 18.5739 14.7695 18.6416C14.8626 18.7093 14.9896 18.7686 15.1504 18.8193C15.3112 18.8701 15.5186 18.9124 15.7725 18.9463L15.6328 20H9.46289L9.60254 18.9463C10.2204 18.904 10.6436 18.8193 10.8721 18.6924C11.109 18.5654 11.2021 18.3623 11.1514 18.083L10.4785 14.6172H5.83203ZM10.1611 12.9541L9.03125 7.2666L6.56836 12.9541H10.1611ZM28.3281 9.20898C28.2604 9.30208 28.1715 9.44173 28.0615 9.62793C27.9515 9.80566 27.833 10.0046 27.7061 10.2246C27.5791 10.4447 27.4437 10.6732 27.2998 10.9102C27.1644 11.1387 27.0332 11.3503 26.9062 11.5449C26.7878 11.7311 26.6777 11.8877 26.5762 12.0146C26.4746 12.1331 26.3984 12.1924 26.3477 12.1924C26.1868 12.1924 26.0303 12.1416 25.8779 12.04C25.7256 11.93 25.5732 11.8158 25.4209 11.6973C25.277 11.5703 25.1374 11.4561 25.002 11.3545C24.8665 11.2445 24.7354 11.1895 24.6084 11.1895C24.3883 11.1895 24.1429 11.2826 23.8721 11.4688C23.6097 11.6465 23.3473 11.9089 23.085 12.2559C22.8226 12.5944 22.5729 13.0091 22.3359 13.5C22.099 13.9824 21.8916 14.5283 21.7139 15.1377C21.5361 15.7725 21.388 16.4157 21.2695 17.0674C21.1595 17.7106 21.1172 18.3708 21.1426 19.0479C20.9987 19.1071 20.7702 19.2087 20.457 19.3525C20.1439 19.488 19.818 19.6361 19.4795 19.7969C19.141 19.9492 18.8236 20.0931 18.5273 20.2285C18.2311 20.3639 18.0322 20.4613 17.9307 20.5205L17.3848 20C17.571 19.1029 17.7445 18.2184 17.9053 17.3467C18.0661 16.4749 18.2015 15.6624 18.3115 14.9092C18.43 14.1475 18.5231 13.4619 18.5908 12.8525C18.6585 12.2432 18.6924 11.748 18.6924 11.3672C18.6924 11.1725 18.6755 11.0202 18.6416 10.9102C18.6162 10.7917 18.5781 10.707 18.5273 10.6562C18.485 10.597 18.43 10.5589 18.3623 10.542C18.3031 10.5251 18.2396 10.5166 18.1719 10.5166C18.0872 10.5166 17.9772 10.5335 17.8418 10.5674C17.7148 10.5928 17.5879 10.6266 17.4609 10.6689C17.3086 10.7113 17.152 10.762 16.9912 10.8213L16.75 9.84375C16.987 9.73372 17.2578 9.61523 17.5625 9.48828C17.8672 9.36133 18.1803 9.23438 18.502 9.10742C18.8236 8.98047 19.1452 8.85775 19.4668 8.73926C19.7884 8.62077 20.0889 8.51497 20.3682 8.42188C20.6475 8.32878 20.8971 8.25684 21.1172 8.20605C21.3372 8.14681 21.5023 8.11719 21.6123 8.11719C21.8493 8.11719 22.0101 8.20182 22.0947 8.37109C22.1878 8.54036 22.2344 8.85775 22.2344 9.32324C22.2344 9.41634 22.2301 9.53483 22.2217 9.67871C22.2132 9.81413 22.1963 9.96647 22.1709 10.1357C22.154 10.2965 22.1328 10.4658 22.1074 10.6436C22.0905 10.8128 22.0693 10.9779 22.0439 11.1387C22.4502 10.5293 22.8268 10.0299 23.1738 9.64062C23.5293 9.24284 23.8594 8.93392 24.1641 8.71387C24.4772 8.48535 24.7734 8.32878 25.0527 8.24414C25.332 8.15951 25.6071 8.11719 25.8779 8.11719C26.0303 8.11719 26.208 8.15951 26.4111 8.24414C26.6143 8.32878 26.8258 8.43034 27.0459 8.54883C27.266 8.66732 27.486 8.79004 27.7061 8.91699C27.9346 9.03548 28.1419 9.13281 28.3281 9.20898ZM34.8789 15.4297C34.9212 15.0827 34.972 14.7061 35.0312 14.2998C35.0905 13.8936 35.1497 13.4873 35.209 13.0811C35.2767 12.6748 35.3402 12.2855 35.3994 11.9131C35.4671 11.5407 35.5264 11.2106 35.5771 10.9229C35.3402 10.6943 35.099 10.4954 34.8535 10.3262C34.6081 10.1569 34.3753 10.0765 34.1553 10.085C33.8083 10.0934 33.4951 10.1781 33.2158 10.3389C32.9365 10.4997 32.6868 10.7155 32.4668 10.9863C32.2552 11.2487 32.069 11.5534 31.9082 11.9004C31.7559 12.2474 31.6289 12.6113 31.5273 12.9922C31.4258 13.3646 31.3496 13.7412 31.2988 14.1221C31.2565 14.5029 31.2354 14.8584 31.2354 15.1885C31.2354 15.637 31.265 16.0264 31.3242 16.3564C31.3835 16.6781 31.4639 16.9447 31.5654 17.1562C31.667 17.3678 31.777 17.5244 31.8955 17.626C32.0225 17.7191 32.1494 17.7656 32.2764 17.7656C32.3864 17.7656 32.5218 17.7275 32.6826 17.6514C32.8434 17.5752 33.0296 17.4482 33.2412 17.2705C33.4613 17.0843 33.7067 16.8431 33.9775 16.5469C34.2484 16.2422 34.5488 15.8698 34.8789 15.4297ZM40.3252 18.502C39.9697 18.7559 39.6058 19.0055 39.2334 19.251C38.8695 19.4964 38.5225 19.7122 38.1924 19.8984C37.8623 20.0846 37.5618 20.2327 37.291 20.3428C37.0286 20.4613 36.8213 20.5205 36.6689 20.5205C36.5335 20.5205 36.3685 20.474 36.1738 20.3809C35.9876 20.2962 35.8014 20.1481 35.6152 19.9365C35.4375 19.7249 35.2682 19.4456 35.1074 19.0986C34.9551 18.7432 34.8493 18.2988 34.79 17.7656C34.5107 18.138 34.2145 18.4935 33.9014 18.832C33.5967 19.1621 33.2793 19.4541 32.9492 19.708C32.6276 19.9535 32.2975 20.1481 31.959 20.292C31.6204 20.4443 31.2777 20.5205 30.9307 20.5205C30.6175 20.5205 30.2874 20.4401 29.9404 20.2793C29.5934 20.1185 29.2718 19.8646 28.9756 19.5176C28.6878 19.1621 28.4466 18.7093 28.252 18.1592C28.0658 17.6006 27.9727 16.9235 27.9727 16.1279C27.9727 15.4593 28.0573 14.8076 28.2266 14.1729C28.4043 13.5296 28.654 12.916 28.9756 12.332C29.2972 11.748 29.6908 11.2021 30.1562 10.6943C30.6302 10.1781 31.1676 9.7168 31.7686 9.31055C32.2256 8.9974 32.7799 8.72233 33.4316 8.48535C34.0833 8.23991 34.7985 8.11719 35.5771 8.11719C35.9326 8.11719 36.2839 8.19759 36.6309 8.3584C36.9779 8.51074 37.3079 8.68424 37.6211 8.87891C37.9427 8.73503 38.2559 8.60384 38.5605 8.48535C38.8737 8.3584 39.1488 8.23568 39.3857 8.11719L39.8301 9.06934C39.6862 9.18783 39.5635 9.29362 39.4619 9.38672C39.3688 9.47982 39.2884 9.58984 39.2207 9.7168C39.153 9.83529 39.0895 9.9834 39.0303 10.1611C38.9795 10.3389 38.9245 10.5716 38.8652 10.8594C38.7383 11.4688 38.624 12.0485 38.5225 12.5986C38.4294 13.1403 38.349 13.6396 38.2812 14.0967C38.222 14.5537 38.1755 14.9515 38.1416 15.29C38.1077 15.6286 38.0908 15.891 38.0908 16.0771C38.0908 16.3057 38.1077 16.5299 38.1416 16.75C38.1755 16.9616 38.222 17.1562 38.2812 17.334C38.349 17.5033 38.4209 17.6387 38.4971 17.7402C38.5817 17.8418 38.6748 17.8926 38.7764 17.8926C38.9456 17.8926 39.1234 17.8714 39.3096 17.8291C39.5042 17.7783 39.7708 17.681 40.1094 17.5371L40.3252 18.502ZM60.0029 18.4512C59.6136 18.6797 59.1904 18.9167 58.7334 19.1621C58.2848 19.4076 57.8447 19.6318 57.4131 19.835C56.9814 20.0296 56.5752 20.1904 56.1943 20.3174C55.8219 20.4528 55.513 20.5205 55.2676 20.5205C55.1406 20.5205 55.0179 20.4867 54.8994 20.4189C54.7809 20.3512 54.6709 20.2497 54.5693 20.1143C54.4762 19.9873 54.4001 19.835 54.3408 19.6572C54.2816 19.471 54.252 19.2637 54.252 19.0352C54.252 18.8828 54.2773 18.6416 54.3281 18.3115C54.3789 17.9814 54.4424 17.6006 54.5186 17.1689C54.6032 16.7288 54.6878 16.2591 54.7725 15.7598C54.8656 15.2604 54.9502 14.7738 55.0264 14.2998C55.111 13.8174 55.1787 13.3646 55.2295 12.9414C55.2803 12.5182 55.3057 12.167 55.3057 11.8877C55.3057 11.5576 55.2633 11.3164 55.1787 11.1641C55.0941 11.0117 54.9756 10.9355 54.8232 10.9355C54.7555 10.9355 54.654 10.9525 54.5186 10.9863C54.3916 11.0202 54.2393 11.0921 54.0615 11.2021C53.8838 11.3037 53.6891 11.4518 53.4775 11.6465C53.2744 11.8327 53.0671 12.0781 52.8555 12.3828C52.7116 12.5859 52.5846 12.806 52.4746 13.043C52.3646 13.2799 52.263 13.5508 52.1699 13.8555C52.0768 14.1602 51.9922 14.5114 51.916 14.9092C51.8398 15.2985 51.7637 15.7471 51.6875 16.2549C51.5775 17.0251 51.5055 17.6344 51.4717 18.083C51.4463 18.5316 51.4421 18.8532 51.459 19.0479C51.3828 19.0902 51.2559 19.1494 51.0781 19.2256C50.9089 19.3018 50.7142 19.3906 50.4941 19.4922C50.2826 19.5853 50.054 19.6868 49.8086 19.7969C49.5716 19.8984 49.3431 19.9958 49.123 20.0889C48.9115 20.182 48.721 20.2666 48.5518 20.3428C48.3825 20.4274 48.2598 20.4867 48.1836 20.5205L47.6504 20C47.8366 19.1367 48.0101 18.2861 48.1709 17.4482C48.3317 16.6104 48.4714 15.8317 48.5898 15.1123C48.7083 14.3844 48.8014 13.7412 48.8691 13.1826C48.9368 12.624 48.9707 12.1882 48.9707 11.875C48.9707 11.2487 48.8057 10.9355 48.4756 10.9355C48.4248 10.9355 48.3359 10.9525 48.209 10.9863C48.0905 11.0202 47.9424 11.0879 47.7646 11.1895C47.5869 11.291 47.388 11.4349 47.168 11.6211C46.9564 11.8073 46.7406 12.0527 46.5205 12.3574C46.3766 12.5605 46.2454 12.7848 46.127 13.0303C46.0085 13.2757 45.8984 13.555 45.7969 13.8682C45.7038 14.1813 45.6149 14.5368 45.5303 14.9346C45.4541 15.3239 45.3779 15.764 45.3018 16.2549C45.1833 17.0251 45.0986 17.6344 45.0479 18.083C45.0055 18.5231 44.9928 18.8447 45.0098 19.0479C44.9336 19.0902 44.8109 19.1494 44.6416 19.2256C44.4808 19.3018 44.2904 19.3906 44.0703 19.4922C43.8587 19.5853 43.6344 19.6868 43.3975 19.7969C43.1605 19.8984 42.932 19.9958 42.7119 20.0889C42.5003 20.182 42.3099 20.2666 42.1406 20.3428C41.9798 20.4274 41.8656 20.4867 41.7979 20.5205L41.252 20C41.4297 19.1029 41.5947 18.2184 41.7471 17.3467C41.9079 16.4749 42.0475 15.6582 42.166 14.8965C42.2845 14.1263 42.3776 13.4365 42.4453 12.8271C42.5215 12.2178 42.5596 11.7311 42.5596 11.3672C42.5596 11.1725 42.5469 11.0202 42.5215 10.9102C42.4961 10.7917 42.458 10.7028 42.4072 10.6436C42.3649 10.5758 42.3141 10.5335 42.2549 10.5166C42.1956 10.4997 42.1322 10.4912 42.0645 10.4912C41.9798 10.4912 41.8698 10.5081 41.7344 10.542C41.599 10.5758 41.4635 10.6139 41.3281 10.6562L40.833 10.8213L40.6172 9.81836C40.8542 9.7168 41.1208 9.60254 41.417 9.47559C41.7217 9.34863 42.0306 9.22591 42.3438 9.10742C42.6654 8.98047 42.987 8.85775 43.3086 8.73926C43.6302 8.62077 43.9264 8.51497 44.1973 8.42188C44.4766 8.32878 44.722 8.25684 44.9336 8.20605C45.1536 8.14681 45.3187 8.11719 45.4287 8.11719C45.5557 8.11719 45.6615 8.13835 45.7461 8.18066C45.8392 8.22298 45.9111 8.29915 45.9619 8.40918C46.0212 8.51074 46.0635 8.65885 46.0889 8.85352C46.1143 9.03971 46.127 9.28092 46.127 9.57715C46.127 9.69564 46.1185 9.85645 46.1016 10.0596C46.0846 10.2542 46.0635 10.4447 46.0381 10.6309C46.5374 10.1315 47.0029 9.72103 47.4346 9.39941C47.8662 9.06934 48.2725 8.8112 48.6533 8.625C49.0426 8.43034 49.4108 8.29915 49.7578 8.23145C50.1133 8.15527 50.4645 8.11719 50.8115 8.11719C51.1247 8.11719 51.3913 8.17643 51.6113 8.29492C51.8398 8.40495 52.026 8.55729 52.1699 8.75195C52.3138 8.94661 52.4154 9.1709 52.4746 9.4248C52.5423 9.67871 52.5762 9.94531 52.5762 10.2246V10.3262C52.5762 10.377 52.5719 10.4362 52.5635 10.5039C53.0544 10.0384 53.5029 9.65332 53.9092 9.34863C54.3154 9.03548 54.6963 8.79004 55.0518 8.6123C55.4072 8.42611 55.7415 8.29915 56.0547 8.23145C56.3763 8.15527 56.6979 8.11719 57.0195 8.11719C57.265 8.11719 57.4977 8.15951 57.7178 8.24414C57.9463 8.32031 58.141 8.44727 58.3018 8.625C58.471 8.80273 58.6022 9.03548 58.6953 9.32324C58.7969 9.60254 58.8477 9.94531 58.8477 10.3516C58.8477 10.834 58.7969 11.3926 58.6953 12.0273C58.5938 12.6621 58.4795 13.3011 58.3525 13.9443C58.2256 14.5876 58.1113 15.1927 58.0098 15.7598C57.9082 16.3268 57.8574 16.7881 57.8574 17.1436C57.8574 17.4313 57.8997 17.626 57.9844 17.7275C58.069 17.8206 58.1833 17.8672 58.3271 17.8672C58.5726 17.8672 58.7926 17.8376 58.9873 17.7783C59.1904 17.7106 59.4655 17.609 59.8125 17.4736L60.0029 18.4512ZM67.8867 15.4297C67.929 15.0827 67.9798 14.7061 68.0391 14.2998C68.0983 13.8936 68.1576 13.4873 68.2168 13.0811C68.2845 12.6748 68.348 12.2855 68.4072 11.9131C68.4749 11.5407 68.5342 11.2106 68.585 10.9229C68.348 10.6943 68.1068 10.4954 67.8613 10.3262C67.6159 10.1569 67.3831 10.0765 67.1631 10.085C66.8161 10.0934 66.5029 10.1781 66.2236 10.3389C65.9443 10.4997 65.6947 10.7155 65.4746 10.9863C65.263 11.2487 65.0768 11.5534 64.916 11.9004C64.7637 12.2474 64.6367 12.6113 64.5352 12.9922C64.4336 13.3646 64.3574 13.7412 64.3066 14.1221C64.2643 14.5029 64.2432 14.8584 64.2432 15.1885C64.2432 15.637 64.2728 16.0264 64.332 16.3564C64.3913 16.6781 64.4717 16.9447 64.5732 17.1562C64.6748 17.3678 64.7848 17.5244 64.9033 17.626C65.0303 17.7191 65.1572 17.7656 65.2842 17.7656C65.3942 17.7656 65.5296 17.7275 65.6904 17.6514C65.8512 17.5752 66.0374 17.4482 66.249 17.2705C66.4691 17.0843 66.7145 16.8431 66.9854 16.5469C67.2562 16.2422 67.5566 15.8698 67.8867 15.4297ZM73.333 18.502C72.9775 18.7559 72.6136 19.0055 72.2412 19.251C71.8773 19.4964 71.5303 19.7122 71.2002 19.8984C70.8701 20.0846 70.5697 20.2327 70.2988 20.3428C70.0365 20.4613 69.8291 20.5205 69.6768 20.5205C69.5413 20.5205 69.3763 20.474 69.1816 20.3809C68.9954 20.2962 68.8092 20.1481 68.623 19.9365C68.4453 19.7249 68.276 19.4456 68.1152 19.0986C67.9629 18.7432 67.8571 18.2988 67.7979 17.7656C67.5186 18.138 67.2223 18.4935 66.9092 18.832C66.6045 19.1621 66.2871 19.4541 65.957 19.708C65.6354 19.9535 65.3053 20.1481 64.9668 20.292C64.6283 20.4443 64.2855 20.5205 63.9385 20.5205C63.6253 20.5205 63.2952 20.4401 62.9482 20.2793C62.6012 20.1185 62.2796 19.8646 61.9834 19.5176C61.6956 19.1621 61.4544 18.7093 61.2598 18.1592C61.0736 17.6006 60.9805 16.9235 60.9805 16.1279C60.9805 15.4593 61.0651 14.8076 61.2344 14.1729C61.4121 13.5296 61.6618 12.916 61.9834 12.332C62.305 11.748 62.6986 11.2021 63.1641 10.6943C63.638 10.1781 64.1755 9.7168 64.7764 9.31055C65.2334 8.9974 65.7878 8.72233 66.4395 8.48535C67.0911 8.23991 67.8063 8.11719 68.585 8.11719C68.9404 8.11719 69.2917 8.19759 69.6387 8.3584C69.9857 8.51074 70.3158 8.68424 70.6289 8.87891C70.9505 8.73503 71.2637 8.60384 71.5684 8.48535C71.8815 8.3584 72.1566 8.23568 72.3936 8.11719L72.8379 9.06934C72.694 9.18783 72.5713 9.29362 72.4697 9.38672C72.3766 9.47982 72.2962 9.58984 72.2285 9.7168C72.1608 9.83529 72.0973 9.9834 72.0381 10.1611C71.9873 10.3389 71.9323 10.5716 71.873 10.8594C71.7461 11.4688 71.6318 12.0485 71.5303 12.5986C71.4372 13.1403 71.3568 13.6396 71.2891 14.0967C71.2298 14.5537 71.1833 14.9515 71.1494 15.29C71.1156 15.6286 71.0986 15.891 71.0986 16.0771C71.0986 16.3057 71.1156 16.5299 71.1494 16.75C71.1833 16.9616 71.2298 17.1562 71.2891 17.334C71.3568 17.5033 71.4287 17.6387 71.5049 17.7402C71.5895 17.8418 71.6826 17.8926 71.7842 17.8926C71.9535 17.8926 72.1312 17.8714 72.3174 17.8291C72.512 17.7783 72.7786 17.681 73.1172 17.5371L73.333 18.502ZM85.2031 9.20898C85.1354 9.30208 85.0465 9.44173 84.9365 9.62793C84.8265 9.80566 84.708 10.0046 84.5811 10.2246C84.4541 10.4447 84.3187 10.6732 84.1748 10.9102C84.0394 11.1387 83.9082 11.3503 83.7812 11.5449C83.6628 11.7311 83.5527 11.8877 83.4512 12.0146C83.3496 12.1331 83.2734 12.1924 83.2227 12.1924C83.0618 12.1924 82.9053 12.1416 82.7529 12.04C82.6006 11.93 82.4482 11.8158 82.2959 11.6973C82.152 11.5703 82.0124 11.4561 81.877 11.3545C81.7415 11.2445 81.6104 11.1895 81.4834 11.1895C81.2633 11.1895 81.0179 11.2826 80.7471 11.4688C80.4847 11.6465 80.2223 11.9089 79.96 12.2559C79.6976 12.5944 79.4479 13.0091 79.2109 13.5C78.974 13.9824 78.7666 14.5283 78.5889 15.1377C78.4111 15.7725 78.263 16.4157 78.1445 17.0674C78.0345 17.7106 77.9922 18.3708 78.0176 19.0479C77.8737 19.1071 77.6452 19.2087 77.332 19.3525C77.0189 19.488 76.693 19.6361 76.3545 19.7969C76.016 19.9492 75.6986 20.0931 75.4023 20.2285C75.1061 20.3639 74.9072 20.4613 74.8057 20.5205L74.2598 20C74.446 19.1029 74.6195 18.2184 74.7803 17.3467C74.9411 16.4749 75.0765 15.6624 75.1865 14.9092C75.305 14.1475 75.3981 13.4619 75.4658 12.8525C75.5335 12.2432 75.5674 11.748 75.5674 11.3672C75.5674 11.1725 75.5505 11.0202 75.5166 10.9102C75.4912 10.7917 75.4531 10.707 75.4023 10.6562C75.36 10.597 75.305 10.5589 75.2373 10.542C75.1781 10.5251 75.1146 10.5166 75.0469 10.5166C74.9622 10.5166 74.8522 10.5335 74.7168 10.5674C74.5898 10.5928 74.4629 10.6266 74.3359 10.6689C74.1836 10.7113 74.027 10.762 73.8662 10.8213L73.625 9.84375C73.862 9.73372 74.1328 9.61523 74.4375 9.48828C74.7422 9.36133 75.0553 9.23438 75.377 9.10742C75.6986 8.98047 76.0202 8.85775 76.3418 8.73926C76.6634 8.62077 76.9639 8.51497 77.2432 8.42188C77.5225 8.32878 77.7721 8.25684 77.9922 8.20605C78.2122 8.14681 78.3773 8.11719 78.4873 8.11719C78.7243 8.11719 78.8851 8.20182 78.9697 8.37109C79.0628 8.54036 79.1094 8.85775 79.1094 9.32324C79.1094 9.41634 79.1051 9.53483 79.0967 9.67871C79.0882 9.81413 79.0713 9.96647 79.0459 10.1357C79.029 10.2965 79.0078 10.4658 78.9824 10.6436C78.9655 10.8128 78.9443 10.9779 78.9189 11.1387C79.3252 10.5293 79.7018 10.0299 80.0488 9.64062C80.4043 9.24284 80.7344 8.93392 81.0391 8.71387C81.3522 8.48535 81.6484 8.32878 81.9277 8.24414C82.207 8.15951 82.4821 8.11719 82.7529 8.11719C82.9053 8.11719 83.083 8.15951 83.2861 8.24414C83.4893 8.32878 83.7008 8.43034 83.9209 8.54883C84.141 8.66732 84.361 8.79004 84.5811 8.91699C84.8096 9.03548 85.0169 9.13281 85.2031 9.20898ZM91.2842 2.01074C91.2842 2.34082 91.2588 2.7513 91.208 3.24219C91.1572 3.72461 91.0895 4.26628 91.0049 4.86719C90.9287 5.4681 90.8356 6.11133 90.7256 6.79688C90.6156 7.47396 90.5013 8.1722 90.3828 8.8916C90.2643 9.611 90.1416 10.3389 90.0146 11.0752C89.8962 11.8031 89.7819 12.5098 89.6719 13.1953L91.6396 11.748C92.2236 11.3164 92.6849 10.9609 93.0234 10.6816C93.3704 10.3939 93.582 10.1696 93.6582 10.0088C93.7344 9.83952 93.6751 9.72949 93.4805 9.67871C93.2943 9.61947 92.9684 9.59831 92.5029 9.61523L92.3887 8.6123C92.7611 8.55306 93.1377 8.49805 93.5186 8.44727C93.8994 8.39648 94.2676 8.35417 94.623 8.32031C94.9785 8.27799 95.3171 8.24837 95.6387 8.23145C95.9603 8.20605 96.2565 8.19336 96.5273 8.19336C97.0605 8.19336 97.416 8.27376 97.5938 8.43457C97.7799 8.59538 97.873 8.81966 97.873 9.10742C97.873 9.23438 97.7799 9.40788 97.5938 9.62793C97.416 9.83952 97.1494 10.0892 96.7939 10.377C96.4469 10.6562 96.0238 10.9736 95.5244 11.3291C95.0251 11.6761 94.458 12.0443 93.8232 12.4336L92.1982 13.4365C92.4014 13.665 92.6003 13.9359 92.7949 14.249C92.998 14.5537 93.1885 14.8711 93.3662 15.2012C93.5524 15.5312 93.7344 15.8571 93.9121 16.1787C94.0898 16.5003 94.2633 16.7881 94.4326 17.042C94.6104 17.2959 94.7796 17.5033 94.9404 17.6641C95.1097 17.8164 95.279 17.8926 95.4482 17.8926C95.6429 17.8926 95.8926 17.863 96.1973 17.8037C96.5104 17.736 96.8278 17.6133 97.1494 17.4355L97.6191 18.375C97.3398 18.612 97.0225 18.8574 96.667 19.1113C96.32 19.3568 95.973 19.5853 95.626 19.7969C95.279 20 94.9531 20.165 94.6484 20.292C94.3438 20.4274 94.0941 20.4951 93.8994 20.4951C93.6201 20.4951 93.3493 20.3724 93.0869 20.127C92.8245 19.89 92.5664 19.5811 92.3125 19.2002C92.0671 18.8109 91.8216 18.3792 91.5762 17.9053C91.3392 17.4229 91.1022 16.9447 90.8652 16.4707C90.6367 15.9883 90.4124 15.5355 90.1924 15.1123C89.9723 14.6807 89.7565 14.3252 89.5449 14.0459C89.4518 14.6468 89.3672 15.2139 89.291 15.7471C89.2233 16.2803 89.1683 16.7669 89.126 17.207C89.0921 17.6387 89.071 18.0111 89.0625 18.3242C89.0625 18.6374 89.0837 18.8701 89.126 19.0225C89.0498 19.0648 88.9229 19.124 88.7451 19.2002C88.5758 19.2764 88.3812 19.3652 88.1611 19.4668C87.9411 19.5684 87.7083 19.6742 87.4629 19.7842C87.2174 19.8857 86.9847 19.9831 86.7646 20.0762C86.5531 20.1777 86.3626 20.2666 86.1934 20.3428C86.0241 20.4274 85.9056 20.4867 85.8379 20.5205L85.2666 20C85.3005 19.7546 85.3597 19.3737 85.4443 18.8574C85.529 18.3327 85.6263 17.7233 85.7363 17.0293C85.8548 16.3268 85.9818 15.5651 86.1172 14.7441C86.2611 13.9147 86.4007 13.0684 86.5361 12.2051C86.6715 11.3418 86.8027 10.4912 86.9297 9.65332C87.0651 8.80697 87.1836 8.01562 87.2852 7.2793C87.3867 6.54297 87.4671 5.88704 87.5264 5.31152C87.5856 4.736 87.6152 4.28743 87.6152 3.96582C87.6152 3.75423 87.6025 3.58919 87.5771 3.4707C87.5518 3.35221 87.5137 3.26335 87.4629 3.2041C87.4121 3.14486 87.3486 3.111 87.2725 3.10254C87.1963 3.08561 87.1074 3.07715 87.0059 3.07715C86.9382 3.07715 86.8366 3.09831 86.7012 3.14062C86.5658 3.17448 86.4261 3.21257 86.2822 3.25488C86.1214 3.30566 85.9479 3.36068 85.7617 3.41992L85.5205 2.41699C85.876 2.25618 86.3034 2.07845 86.8027 1.88379C87.3105 1.68066 87.8099 1.49447 88.3008 1.3252C88.8001 1.14746 89.2529 0.999349 89.6592 0.880859C90.0739 0.76237 90.3659 0.703125 90.5352 0.703125C90.6536 0.703125 90.7594 0.71582 90.8525 0.741211C90.9456 0.766602 91.0218 0.825846 91.0811 0.918945C91.1488 1.00358 91.1995 1.13477 91.2334 1.3125C91.2673 1.48177 91.2842 1.71452 91.2842 2.01074ZM116.243 15.7598C116.277 15.4297 116.328 15.0361 116.396 14.5791C116.472 14.1221 116.548 13.6566 116.624 13.1826C116.7 12.7087 116.776 12.2516 116.853 11.8115C116.937 11.3714 117.005 10.999 117.056 10.6943C116.861 10.5251 116.662 10.3812 116.459 10.2627C116.256 10.1442 116.057 10.085 115.862 10.085C115.541 10.085 115.249 10.1654 114.986 10.3262C114.724 10.487 114.487 10.7028 114.275 10.9736C114.072 11.236 113.895 11.5407 113.742 11.8877C113.598 12.2347 113.476 12.5986 113.374 12.9795C113.272 13.3519 113.196 13.7327 113.146 14.1221C113.103 14.5029 113.082 14.8584 113.082 15.1885C113.082 15.637 113.112 16.0264 113.171 16.3564C113.23 16.6781 113.302 16.9447 113.387 17.1562C113.48 17.3678 113.577 17.5244 113.679 17.626C113.78 17.7191 113.873 17.7656 113.958 17.7656C114.068 17.7656 114.195 17.7318 114.339 17.6641C114.491 17.5964 114.66 17.4863 114.847 17.334C115.041 17.1816 115.253 16.9785 115.481 16.7246C115.718 16.4622 115.972 16.1406 116.243 15.7598ZM125.27 13.0303C125.168 13.7666 124.965 14.4606 124.66 15.1123C124.364 15.764 124.004 16.3691 123.581 16.9277C123.166 17.4779 122.709 17.9772 122.21 18.4258C121.711 18.8659 121.211 19.2425 120.712 19.5557C120.213 19.8688 119.734 20.1058 119.277 20.2666C118.82 20.4359 118.427 20.5205 118.097 20.5205C117.97 20.5205 117.817 20.4824 117.64 20.4062C117.47 20.3385 117.297 20.2074 117.119 20.0127C116.95 19.8265 116.789 19.5684 116.637 19.2383C116.484 18.8997 116.37 18.4681 116.294 17.9434C116.074 18.2904 115.82 18.6204 115.532 18.9336C115.244 19.2467 114.944 19.5218 114.631 19.7588C114.318 19.9958 114 20.182 113.679 20.3174C113.357 20.4528 113.057 20.5205 112.777 20.5205C112.49 20.5205 112.172 20.4401 111.825 20.2793C111.487 20.1185 111.165 19.8646 110.86 19.5176C110.564 19.1621 110.314 18.7093 110.111 18.1592C109.917 17.6006 109.819 16.9235 109.819 16.1279C109.819 15.4593 109.904 14.8076 110.073 14.1729C110.243 13.5296 110.488 12.916 110.81 12.332C111.14 11.748 111.537 11.2021 112.003 10.6943C112.468 10.1781 113.002 9.7168 113.603 9.31055C113.831 9.1582 114.102 9.01009 114.415 8.86621C114.728 8.72233 115.05 8.59538 115.38 8.48535C115.718 8.37533 116.053 8.28646 116.383 8.21875C116.713 8.15104 117.013 8.11719 117.284 8.11719C117.631 8.11719 117.97 8.19336 118.3 8.3457C118.638 8.49805 118.956 8.65885 119.252 8.82812C119.557 8.69271 119.853 8.56576 120.141 8.44727C120.428 8.32878 120.682 8.21875 120.902 8.11719L121.347 9.06934C121.203 9.18783 121.08 9.29362 120.979 9.38672C120.877 9.47982 120.788 9.58984 120.712 9.7168C120.636 9.83529 120.568 9.9834 120.509 10.1611C120.458 10.3389 120.403 10.5716 120.344 10.8594C120.217 11.4688 120.103 12.0485 120.001 12.5986C119.908 13.1403 119.827 13.6396 119.76 14.0967C119.701 14.5537 119.654 14.9515 119.62 15.29C119.586 15.6286 119.569 15.891 119.569 16.0771C119.569 16.6019 119.637 16.9997 119.772 17.2705C119.908 17.5329 120.077 17.6641 120.28 17.6641C120.712 17.6641 121.089 17.334 121.41 16.6738C121.74 16.0137 122.015 14.9642 122.235 13.5254C122.447 12.0951 122.434 10.8509 122.197 9.79297C121.969 8.73503 121.575 7.85905 121.017 7.16504C120.458 6.47103 119.772 5.95475 118.96 5.61621C118.147 5.26921 117.271 5.0957 116.332 5.0957C115.316 5.0957 114.36 5.32422 113.463 5.78125C112.566 6.23828 111.766 6.85612 111.063 7.63477C110.369 8.41341 109.785 9.31901 109.312 10.3516C108.838 11.3757 108.52 12.459 108.359 13.6016C108.215 14.6257 108.203 15.5609 108.321 16.4072C108.44 17.2451 108.656 17.9984 108.969 18.667C109.282 19.3356 109.675 19.9154 110.149 20.4062C110.632 20.9056 111.161 21.3161 111.736 21.6377C112.32 21.9678 112.934 22.2132 113.577 22.374C114.229 22.5348 114.885 22.6152 115.545 22.6152C116.01 22.6152 116.472 22.5687 116.929 22.4756C117.394 22.391 117.847 22.2767 118.287 22.1328C118.727 21.9889 119.146 21.8239 119.544 21.6377C119.95 21.46 120.323 21.2738 120.661 21.0791C121.008 20.8844 121.317 20.694 121.588 20.5078C121.859 20.3301 122.083 20.1693 122.261 20.0254L122.718 21.3584C122.396 21.68 121.969 22.0355 121.436 22.4248C120.902 22.8226 120.28 23.195 119.569 23.542C118.867 23.889 118.084 24.1768 117.221 24.4053C116.366 24.6423 115.452 24.7607 114.479 24.7607C113.497 24.7607 112.562 24.6465 111.673 24.418C110.784 24.1979 109.959 23.8721 109.197 23.4404C108.444 23.0088 107.771 22.484 107.179 21.8662C106.586 21.2484 106.1 20.5459 105.719 19.7588C105.346 18.9632 105.088 18.0915 104.944 17.1436C104.809 16.1956 104.817 15.18 104.97 14.0967C105.105 13.1488 105.355 12.2178 105.719 11.3037C106.083 10.3812 106.544 9.51367 107.103 8.70117C107.67 7.88867 108.321 7.13965 109.058 6.4541C109.794 5.76009 110.598 5.16341 111.47 4.66406C112.35 4.16471 113.289 3.77539 114.288 3.49609C115.287 3.2168 116.324 3.07715 117.398 3.07715C118.617 3.07715 119.756 3.2972 120.813 3.7373C121.871 4.17741 122.769 4.82487 123.505 5.67969C124.241 6.52604 124.774 7.56706 125.104 8.80273C125.443 10.0384 125.498 11.4476 125.27 13.0303ZM149.759 5.05762C149.226 5.17611 148.832 5.30729 148.578 5.45117C148.324 5.59505 148.189 5.72624 148.172 5.84473L147.093 13.5C146.94 14.6087 146.653 15.5947 146.229 16.458C145.815 17.3128 145.303 18.0322 144.693 18.6162C144.092 19.2002 143.411 19.6445 142.649 19.9492C141.896 20.2454 141.101 20.3936 140.263 20.3936C139.569 20.3936 138.9 20.2878 138.257 20.0762C137.614 19.8646 137.042 19.5557 136.543 19.1494C136.052 18.7432 135.659 18.2438 135.362 17.6514C135.066 17.0505 134.918 16.3607 134.918 15.582C134.918 15.1335 134.956 14.6468 135.032 14.1221L136.213 5.84473C136.221 5.74316 136.116 5.61621 135.896 5.46387C135.675 5.31152 135.295 5.17611 134.753 5.05762L134.893 4.00391H141.304L141.164 5.05762C140.631 5.17611 140.22 5.30729 139.933 5.45117C139.653 5.59505 139.505 5.72624 139.488 5.84473L138.371 13.5254C138.329 13.7708 138.295 14.0163 138.27 14.2617C138.244 14.5072 138.231 14.7399 138.231 14.96C138.231 16.1449 138.477 17.0166 138.968 17.5752C139.467 18.1253 140.242 18.4004 141.291 18.4004C141.841 18.4004 142.315 18.2946 142.713 18.083C143.119 17.863 143.458 17.5583 143.729 17.1689C144.008 16.7796 144.228 16.3226 144.389 15.7979C144.558 15.2646 144.685 14.6807 144.77 14.0459L145.925 5.84473C145.933 5.79395 145.916 5.7347 145.874 5.66699C145.832 5.59928 145.756 5.53158 145.646 5.46387C145.544 5.39616 145.4 5.32845 145.214 5.26074C145.036 5.18457 144.812 5.11686 144.541 5.05762L144.681 4.00391H149.898L149.759 5.05762ZM162.784 18.4512C162.403 18.6797 161.984 18.9167 161.527 19.1621C161.079 19.4076 160.634 19.6318 160.194 19.835C159.763 20.0296 159.356 20.1904 158.976 20.3174C158.603 20.4528 158.303 20.5205 158.074 20.5205C157.778 20.5205 157.524 20.3851 157.312 20.1143C157.109 19.8519 157.008 19.4922 157.008 19.0352C157.008 18.8828 157.033 18.6331 157.084 18.2861C157.135 17.9391 157.198 17.5413 157.274 17.0928C157.351 16.6442 157.431 16.1702 157.516 15.6709C157.6 15.1715 157.681 14.6934 157.757 14.2363C157.833 13.7708 157.896 13.3519 157.947 12.9795C157.998 12.6071 158.023 12.3236 158.023 12.1289C158.023 11.6719 157.985 11.3545 157.909 11.1768C157.841 10.999 157.685 10.9102 157.439 10.9102C157.329 10.9102 157.186 10.9355 157.008 10.9863C156.83 11.0371 156.635 11.126 156.424 11.2529C156.212 11.3799 155.988 11.5576 155.751 11.7861C155.522 12.0062 155.298 12.2897 155.078 12.6367C154.824 13.043 154.625 13.5296 154.481 14.0967C154.346 14.6637 154.206 15.3577 154.062 16.1787C153.995 16.5596 153.94 16.8896 153.897 17.1689C153.855 17.4398 153.821 17.6852 153.796 17.9053C153.779 18.1169 153.766 18.3158 153.758 18.502C153.758 18.6797 153.762 18.8617 153.771 19.0479C153.694 19.0902 153.572 19.1494 153.402 19.2256C153.242 19.3018 153.051 19.3906 152.831 19.4922C152.619 19.5853 152.395 19.6868 152.158 19.7969C151.921 19.8984 151.693 19.9958 151.473 20.0889C151.261 20.182 151.071 20.2666 150.901 20.3428C150.741 20.4274 150.626 20.4867 150.559 20.5205L150.013 20C150.19 19.1536 150.355 18.2861 150.508 17.3975C150.669 16.5003 150.808 15.654 150.927 14.8584C151.054 14.0544 151.151 13.3434 151.219 12.7256C151.295 12.0993 151.333 11.638 151.333 11.3418C151.333 11.1471 151.32 10.9948 151.295 10.8848C151.278 10.7663 151.248 10.6816 151.206 10.6309C151.164 10.5716 151.113 10.5335 151.054 10.5166C150.994 10.4997 150.927 10.4912 150.851 10.4912C150.774 10.4912 150.669 10.5081 150.533 10.542C150.398 10.5758 150.262 10.6139 150.127 10.6562C149.975 10.707 149.805 10.762 149.619 10.8213L149.365 9.81836C149.602 9.7168 149.873 9.60254 150.178 9.47559C150.491 9.34863 150.812 9.22591 151.143 9.10742C151.473 8.98047 151.803 8.85775 152.133 8.73926C152.463 8.62077 152.768 8.51497 153.047 8.42188C153.335 8.32878 153.58 8.25684 153.783 8.20605C153.995 8.14681 154.147 8.11719 154.24 8.11719C154.359 8.11719 154.456 8.13835 154.532 8.18066C154.617 8.21452 154.68 8.28223 154.723 8.38379C154.773 8.48535 154.807 8.62923 154.824 8.81543C154.85 9.00163 154.862 9.24707 154.862 9.55176C154.862 9.72949 154.858 9.90299 154.85 10.0723C154.841 10.2331 154.824 10.4193 154.799 10.6309C155.721 9.78451 156.627 9.15397 157.516 8.73926C158.404 8.32454 159.229 8.11719 159.991 8.11719C160.254 8.11719 160.491 8.14258 160.702 8.19336C160.914 8.24414 161.091 8.34147 161.235 8.48535C161.388 8.62077 161.502 8.81966 161.578 9.08203C161.654 9.33594 161.692 9.66602 161.692 10.0723C161.692 10.3685 161.667 10.7155 161.616 11.1133C161.565 11.5111 161.498 11.9342 161.413 12.3828C161.337 12.8229 161.252 13.2757 161.159 13.7412C161.066 14.2067 160.977 14.651 160.893 15.0742C160.816 15.4974 160.753 15.891 160.702 16.2549C160.651 16.6104 160.626 16.9066 160.626 17.1436C160.626 17.4313 160.664 17.6302 160.74 17.7402C160.816 17.8418 160.931 17.8926 161.083 17.8926C161.185 17.8926 161.278 17.8841 161.362 17.8672C161.447 17.8503 161.536 17.8249 161.629 17.791C161.722 17.7572 161.828 17.7148 161.946 17.6641C162.073 17.6133 162.226 17.5498 162.403 17.4736L162.784 18.4512ZM170.211 18.4512C169.813 18.6882 169.39 18.9294 168.941 19.1748C168.501 19.4202 168.065 19.6445 167.634 19.8477C167.211 20.0423 166.813 20.2031 166.44 20.3301C166.068 20.457 165.755 20.5205 165.501 20.5205C165.213 20.5205 164.964 20.3851 164.752 20.1143C164.54 19.8519 164.435 19.4922 164.435 19.0352C164.435 18.7812 164.46 18.4469 164.511 18.0322C164.57 17.609 164.642 17.1478 164.727 16.6484C164.811 16.1491 164.904 15.6328 165.006 15.0996C165.107 14.5664 165.201 14.0586 165.285 13.5762C165.37 13.0938 165.438 12.6579 165.488 12.2686C165.548 11.8708 165.577 11.5703 165.577 11.3672C165.577 11.1725 165.564 11.0202 165.539 10.9102C165.514 10.7917 165.48 10.707 165.438 10.6562C165.395 10.597 165.34 10.5589 165.272 10.542C165.205 10.5251 165.133 10.5166 165.057 10.5166C164.989 10.5166 164.892 10.5335 164.765 10.5674C164.638 10.5928 164.511 10.6266 164.384 10.6689C164.231 10.7113 164.075 10.762 163.914 10.8213L163.673 9.84375C164.028 9.68294 164.443 9.50521 164.917 9.31055C165.399 9.10742 165.873 8.91699 166.339 8.73926C166.813 8.56152 167.244 8.41341 167.634 8.29492C168.023 8.17643 168.307 8.11719 168.484 8.11719C168.721 8.11719 168.908 8.19759 169.043 8.3584C169.187 8.51921 169.259 8.79427 169.259 9.18359C169.259 9.42904 169.229 9.76335 169.17 10.1865C169.111 10.6097 169.035 11.0752 168.941 11.583C168.857 12.0824 168.764 12.6113 168.662 13.1699C168.561 13.7201 168.463 14.249 168.37 14.7568C168.285 15.2562 168.214 15.7174 168.154 16.1406C168.095 16.5638 168.065 16.8981 168.065 17.1436C168.065 17.4059 168.091 17.5964 168.142 17.7148C168.201 17.8333 168.302 17.8926 168.446 17.8926C168.573 17.8926 168.692 17.8841 168.802 17.8672C168.912 17.8503 169.022 17.8249 169.132 17.791C169.25 17.7572 169.373 17.7148 169.5 17.6641C169.627 17.6133 169.779 17.5498 169.957 17.4736L170.211 18.4512ZM170.49 3.97852C170.49 4.21549 170.435 4.46517 170.325 4.72754C170.224 4.98991 170.067 5.23112 169.855 5.45117C169.652 5.67122 169.398 5.85319 169.094 5.99707C168.789 6.14095 168.438 6.21289 168.04 6.21289C167.786 6.21289 167.566 6.18327 167.38 6.12402C167.194 6.05632 167.041 5.96745 166.923 5.85742C166.804 5.7474 166.715 5.62467 166.656 5.48926C166.605 5.35384 166.58 5.21419 166.58 5.07031C166.58 4.8418 166.631 4.59635 166.732 4.33398C166.842 4.07161 167.003 3.8304 167.215 3.61035C167.426 3.38184 167.68 3.19564 167.977 3.05176C168.281 2.89941 168.632 2.82324 169.03 2.82324C169.284 2.82324 169.504 2.8571 169.69 2.9248C169.877 2.99251 170.029 3.08138 170.147 3.19141C170.266 3.29297 170.351 3.41569 170.401 3.55957C170.461 3.69499 170.49 3.83464 170.49 3.97852ZM183.198 9.18359C183.198 9.45443 183.101 9.82259 182.906 10.2881C182.712 10.7536 182.39 11.3799 181.941 12.167C181.501 12.9541 180.926 13.9316 180.215 15.0996C179.504 16.2591 178.628 17.6725 177.587 19.3398C177.511 19.3822 177.358 19.4583 177.13 19.5684C176.91 19.6784 176.669 19.8011 176.406 19.9365C176.144 20.0635 175.894 20.182 175.657 20.292C175.429 20.4105 175.272 20.4867 175.188 20.5205L174.654 20C174.587 19.526 174.51 19.0267 174.426 18.502C174.341 17.9772 174.248 17.4525 174.146 16.9277C174.053 16.3945 173.952 15.8698 173.842 15.3535C173.74 14.8372 173.639 14.3506 173.537 13.8936C173.436 13.4365 173.338 13.0176 173.245 12.6367C173.152 12.2559 173.067 11.9385 172.991 11.6846C172.924 11.4561 172.852 11.2741 172.775 11.1387C172.699 11.0033 172.619 10.8975 172.534 10.8213C172.458 10.7451 172.382 10.6986 172.306 10.6816C172.229 10.6562 172.153 10.6436 172.077 10.6436C171.993 10.6436 171.882 10.6605 171.747 10.6943C171.612 10.7197 171.476 10.7536 171.341 10.7959C171.188 10.8382 171.019 10.889 170.833 10.9482L170.478 9.9707C170.833 9.78451 171.227 9.58561 171.658 9.37402C172.098 9.15397 172.521 8.95085 172.928 8.76465C173.334 8.57845 173.698 8.42611 174.02 8.30762C174.35 8.18066 174.582 8.11719 174.718 8.11719C174.963 8.11719 175.166 8.23991 175.327 8.48535C175.496 8.72233 175.674 9.13704 175.86 9.72949C175.928 9.94954 176.008 10.2585 176.102 10.6562C176.195 11.0456 176.288 11.4814 176.381 11.9639C176.482 12.4378 176.58 12.9329 176.673 13.4492C176.774 13.957 176.863 14.431 176.939 14.8711C177.016 15.3112 177.079 15.6963 177.13 16.0264C177.189 16.348 177.223 16.5638 177.231 16.6738C177.799 15.7852 178.243 15.015 178.564 14.3633C178.895 13.7116 179.14 13.1657 179.301 12.7256C179.462 12.277 179.559 11.9258 179.593 11.6719C179.635 11.418 179.656 11.2445 179.656 11.1514C179.656 10.9229 179.605 10.7578 179.504 10.6562C179.402 10.5547 179.233 10.5039 178.996 10.5039C178.852 10.5039 178.713 10.5208 178.577 10.5547C178.45 10.5801 178.294 10.6266 178.107 10.6943L177.815 9.74219C178.086 9.58984 178.425 9.41634 178.831 9.22168C179.237 9.02702 179.648 8.84928 180.062 8.68848C180.486 8.51921 180.883 8.37956 181.256 8.26953C181.637 8.15951 181.929 8.10872 182.132 8.11719C182.276 8.12565 182.411 8.14681 182.538 8.18066C182.674 8.21452 182.788 8.27376 182.881 8.3584C182.982 8.44303 183.059 8.55306 183.109 8.68848C183.169 8.81543 183.198 8.98047 183.198 9.18359ZM193.989 10.3516C193.989 10.5801 193.96 10.8298 193.9 11.1006C193.85 11.363 193.74 11.6423 193.57 11.9385C193.41 12.2262 193.177 12.5309 192.872 12.8525C192.567 13.1742 192.161 13.5042 191.653 13.8428C191.146 14.1813 190.523 14.5283 189.787 14.8838C189.051 15.2393 188.171 15.599 187.146 15.9629C187.265 16.7331 187.481 17.334 187.794 17.7656C188.107 18.1888 188.467 18.4004 188.873 18.4004C189.237 18.4004 189.766 18.2142 190.46 17.8418C191.162 17.4694 192.026 16.8727 193.05 16.0518C193.101 16.0771 193.16 16.1406 193.228 16.2422C193.295 16.3353 193.359 16.4411 193.418 16.5596C193.486 16.6696 193.545 16.7754 193.596 16.877L193.697 17.0801C193.003 17.681 192.368 18.2015 191.793 18.6416C191.217 19.0732 190.684 19.4287 190.193 19.708C189.702 19.9873 189.241 20.1904 188.81 20.3174C188.386 20.4528 187.976 20.5205 187.578 20.5205C187.206 20.5205 186.795 20.4401 186.347 20.2793C185.898 20.127 185.479 19.8815 185.09 19.543C184.709 19.196 184.387 18.7474 184.125 18.1973C183.871 17.6387 183.744 16.9574 183.744 16.1533C183.744 15.4932 183.825 14.8669 183.985 14.2744C184.146 13.6735 184.375 13.1064 184.671 12.5732C184.967 12.0316 185.323 11.5195 185.737 11.0371C186.16 10.5547 186.634 10.0892 187.159 9.64062C187.345 9.47982 187.582 9.31055 187.87 9.13281C188.158 8.95508 188.471 8.79004 188.81 8.6377C189.157 8.48535 189.512 8.36263 189.876 8.26953C190.248 8.16797 190.612 8.11719 190.968 8.11719C191.484 8.11719 191.933 8.1849 192.313 8.32031C192.694 8.44727 193.007 8.61654 193.253 8.82812C193.507 9.03971 193.693 9.28092 193.812 9.55176C193.93 9.81413 193.989 10.0807 193.989 10.3516ZM188.289 10.834C188.103 11.0794 187.938 11.3291 187.794 11.583C187.659 11.8285 187.54 12.0908 187.438 12.3701C187.337 12.6494 187.257 12.9499 187.197 13.2715C187.138 13.5931 187.1 13.9486 187.083 14.3379C187.828 13.9824 188.42 13.665 188.86 13.3857C189.309 13.098 189.647 12.8271 189.876 12.5732C190.113 12.3193 190.265 12.0697 190.333 11.8242C190.401 11.5788 190.435 11.3206 190.435 11.0498C190.435 10.7028 190.358 10.4362 190.206 10.25C190.054 10.0553 189.868 9.95801 189.647 9.95801C189.58 9.95801 189.491 9.97917 189.381 10.0215C189.271 10.0638 189.152 10.123 189.025 10.1992C188.898 10.2754 188.767 10.3685 188.632 10.4785C188.505 10.5801 188.391 10.6986 188.289 10.834ZM206.291 9.20898C206.223 9.30208 206.134 9.44173 206.024 9.62793C205.914 9.80566 205.796 10.0046 205.669 10.2246C205.542 10.4447 205.407 10.6732 205.263 10.9102C205.127 11.1387 204.996 11.3503 204.869 11.5449C204.751 11.7311 204.641 11.8877 204.539 12.0146C204.438 12.1331 204.361 12.1924 204.311 12.1924C204.15 12.1924 203.993 12.1416 203.841 12.04C203.688 11.93 203.536 11.8158 203.384 11.6973C203.24 11.5703 203.1 11.4561 202.965 11.3545C202.829 11.2445 202.698 11.1895 202.571 11.1895C202.351 11.1895 202.106 11.2826 201.835 11.4688C201.573 11.6465 201.31 11.9089 201.048 12.2559C200.785 12.5944 200.536 13.0091 200.299 13.5C200.062 13.9824 199.854 14.5283 199.677 15.1377C199.499 15.7725 199.351 16.4157 199.232 17.0674C199.122 17.7106 199.08 18.3708 199.105 19.0479C198.962 19.1071 198.733 19.2087 198.42 19.3525C198.107 19.488 197.781 19.6361 197.442 19.7969C197.104 19.9492 196.786 20.0931 196.49 20.2285C196.194 20.3639 195.995 20.4613 195.894 20.5205L195.348 20C195.534 19.1029 195.707 18.2184 195.868 17.3467C196.029 16.4749 196.164 15.6624 196.274 14.9092C196.393 14.1475 196.486 13.4619 196.554 12.8525C196.621 12.2432 196.655 11.748 196.655 11.3672C196.655 11.1725 196.638 11.0202 196.604 10.9102C196.579 10.7917 196.541 10.707 196.49 10.6562C196.448 10.597 196.393 10.5589 196.325 10.542C196.266 10.5251 196.202 10.5166 196.135 10.5166C196.05 10.5166 195.94 10.5335 195.805 10.5674C195.678 10.5928 195.551 10.6266 195.424 10.6689C195.271 10.7113 195.115 10.762 194.954 10.8213L194.713 9.84375C194.95 9.73372 195.221 9.61523 195.525 9.48828C195.83 9.36133 196.143 9.23438 196.465 9.10742C196.786 8.98047 197.108 8.85775 197.43 8.73926C197.751 8.62077 198.052 8.51497 198.331 8.42188C198.61 8.32878 198.86 8.25684 199.08 8.20605C199.3 8.14681 199.465 8.11719 199.575 8.11719C199.812 8.11719 199.973 8.20182 200.058 8.37109C200.151 8.54036 200.197 8.85775 200.197 9.32324C200.197 9.41634 200.193 9.53483 200.185 9.67871C200.176 9.81413 200.159 9.96647 200.134 10.1357C200.117 10.2965 200.096 10.4658 200.07 10.6436C200.053 10.8128 200.032 10.9779 200.007 11.1387C200.413 10.5293 200.79 10.0299 201.137 9.64062C201.492 9.24284 201.822 8.93392 202.127 8.71387C202.44 8.48535 202.736 8.32878 203.016 8.24414C203.295 8.15951 203.57 8.11719 203.841 8.11719C203.993 8.11719 204.171 8.15951 204.374 8.24414C204.577 8.32878 204.789 8.43034 205.009 8.54883C205.229 8.66732 205.449 8.79004 205.669 8.91699C205.897 9.03548 206.105 9.13281 206.291 9.20898ZM215.901 9.28516C215.766 9.47982 215.601 9.7041 215.406 9.95801C215.22 10.2035 215.03 10.4404 214.835 10.6689C214.649 10.8975 214.471 11.0921 214.302 11.2529C214.132 11.4053 214.001 11.4814 213.908 11.4814C213.764 11.4814 213.604 11.3883 213.426 11.2021C213.248 11.016 213.045 10.8128 212.816 10.5928C212.596 10.3643 212.355 10.1569 212.093 9.9707C211.83 9.78451 211.543 9.69141 211.229 9.69141C210.756 9.69141 210.421 9.80143 210.227 10.0215C210.032 10.2331 209.935 10.5166 209.935 10.8721C209.935 11.0837 209.981 11.2783 210.074 11.4561C210.167 11.6253 210.303 11.7904 210.48 11.9512C210.667 12.1035 210.891 12.2559 211.153 12.4082C211.424 12.5605 211.729 12.7256 212.067 12.9033C212.414 13.0811 212.753 13.2757 213.083 13.4873C213.422 13.6989 213.718 13.9443 213.972 14.2236C214.234 14.4945 214.446 14.8034 214.606 15.1504C214.767 15.4889 214.848 15.8825 214.848 16.3311C214.848 16.7204 214.759 17.097 214.581 17.4609C214.412 17.8164 214.179 18.1507 213.883 18.4639C213.587 18.7686 213.244 19.0479 212.854 19.3018C212.474 19.5557 212.076 19.7757 211.661 19.9619C211.246 20.1396 210.827 20.2751 210.404 20.3682C209.981 20.4697 209.588 20.5205 209.224 20.5205C208.64 20.5205 208.102 20.4486 207.611 20.3047C207.12 20.1608 206.697 19.9873 206.342 19.7842C205.986 19.5726 205.711 19.3525 205.517 19.124C205.313 18.887 205.212 18.6797 205.212 18.502C205.212 18.375 205.275 18.1719 205.402 17.8926C205.529 17.6048 205.677 17.3128 205.847 17.0166C206.024 16.7204 206.198 16.4622 206.367 16.2422C206.536 16.0137 206.668 15.8994 206.761 15.8994C206.837 15.8994 206.922 15.9714 207.015 16.1152C207.108 16.2591 207.214 16.4368 207.332 16.6484C207.459 16.86 207.599 17.0928 207.751 17.3467C207.912 17.6006 208.098 17.8333 208.31 18.0449C208.53 18.2565 208.775 18.4342 209.046 18.5781C209.317 18.722 209.63 18.7939 209.985 18.7939C210.519 18.7939 210.929 18.6585 211.217 18.3877C211.513 18.1169 211.661 17.7529 211.661 17.2959C211.661 17.0166 211.585 16.7585 211.433 16.5215C211.289 16.276 211.094 16.0475 210.849 15.8359C210.603 15.6243 210.324 15.4297 210.011 15.252C209.706 15.0658 209.397 14.888 209.084 14.7188C208.635 14.4902 208.263 14.2575 207.967 14.0205C207.679 13.7751 207.451 13.5296 207.281 13.2842C207.112 13.0303 206.993 12.7721 206.926 12.5098C206.858 12.2474 206.824 11.9808 206.824 11.71C206.824 11.1768 206.989 10.6901 207.319 10.25C207.649 9.8099 208.064 9.43327 208.563 9.12012C209.063 8.7985 209.609 8.55306 210.201 8.38379C210.802 8.20605 211.369 8.11719 211.902 8.11719C212.359 8.11719 212.77 8.1722 213.134 8.28223C213.506 8.38379 213.849 8.50228 214.162 8.6377C214.475 8.76465 214.771 8.8916 215.051 9.01855C215.33 9.14551 215.614 9.23438 215.901 9.28516ZM222.998 18.4512C222.6 18.6882 222.177 18.9294 221.729 19.1748C221.288 19.4202 220.853 19.6445 220.421 19.8477C219.998 20.0423 219.6 20.2031 219.228 20.3301C218.855 20.457 218.542 20.5205 218.288 20.5205C218 20.5205 217.751 20.3851 217.539 20.1143C217.327 19.8519 217.222 19.4922 217.222 19.0352C217.222 18.7812 217.247 18.4469 217.298 18.0322C217.357 17.609 217.429 17.1478 217.514 16.6484C217.598 16.1491 217.691 15.6328 217.793 15.0996C217.895 14.5664 217.988 14.0586 218.072 13.5762C218.157 13.0938 218.225 12.6579 218.275 12.2686C218.335 11.8708 218.364 11.5703 218.364 11.3672C218.364 11.1725 218.352 11.0202 218.326 10.9102C218.301 10.7917 218.267 10.707 218.225 10.6562C218.182 10.597 218.127 10.5589 218.06 10.542C217.992 10.5251 217.92 10.5166 217.844 10.5166C217.776 10.5166 217.679 10.5335 217.552 10.5674C217.425 10.5928 217.298 10.6266 217.171 10.6689C217.019 10.7113 216.862 10.762 216.701 10.8213L216.46 9.84375C216.815 9.68294 217.23 9.50521 217.704 9.31055C218.187 9.10742 218.66 8.91699 219.126 8.73926C219.6 8.56152 220.032 8.41341 220.421 8.29492C220.81 8.17643 221.094 8.11719 221.271 8.11719C221.508 8.11719 221.695 8.19759 221.83 8.3584C221.974 8.51921 222.046 8.79427 222.046 9.18359C222.046 9.42904 222.016 9.76335 221.957 10.1865C221.898 10.6097 221.822 11.0752 221.729 11.583C221.644 12.0824 221.551 12.6113 221.449 13.1699C221.348 13.7201 221.25 14.249 221.157 14.7568C221.073 15.2562 221.001 15.7174 220.941 16.1406C220.882 16.5638 220.853 16.8981 220.853 17.1436C220.853 17.4059 220.878 17.5964 220.929 17.7148C220.988 17.8333 221.09 17.8926 221.233 17.8926C221.36 17.8926 221.479 17.8841 221.589 17.8672C221.699 17.8503 221.809 17.8249 221.919 17.791C222.037 17.7572 222.16 17.7148 222.287 17.6641C222.414 17.6133 222.566 17.5498 222.744 17.4736L222.998 18.4512ZM223.277 3.97852C223.277 4.21549 223.222 4.46517 223.112 4.72754C223.011 4.98991 222.854 5.23112 222.643 5.45117C222.439 5.67122 222.186 5.85319 221.881 5.99707C221.576 6.14095 221.225 6.21289 220.827 6.21289C220.573 6.21289 220.353 6.18327 220.167 6.12402C219.981 6.05632 219.828 5.96745 219.71 5.85742C219.591 5.7474 219.503 5.62467 219.443 5.48926C219.393 5.35384 219.367 5.21419 219.367 5.07031C219.367 4.8418 219.418 4.59635 219.52 4.33398C219.63 4.07161 219.79 3.8304 220.002 3.61035C220.214 3.38184 220.467 3.19564 220.764 3.05176C221.068 2.89941 221.42 2.82324 221.817 2.82324C222.071 2.82324 222.291 2.8571 222.478 2.9248C222.664 2.99251 222.816 3.08138 222.935 3.19141C223.053 3.29297 223.138 3.41569 223.188 3.55957C223.248 3.69499 223.277 3.83464 223.277 3.97852ZM232.075 17.8799C231.593 18.2607 231.11 18.6162 230.628 18.9463C230.146 19.2679 229.68 19.5472 229.231 19.7842C228.791 20.0127 228.385 20.1904 228.013 20.3174C227.649 20.4528 227.34 20.5205 227.086 20.5205C226.815 20.5205 226.54 20.457 226.261 20.3301C225.981 20.2031 225.728 20.0296 225.499 19.8096C225.279 19.5811 225.097 19.3102 224.953 18.9971C224.809 18.6839 224.737 18.3411 224.737 17.9688C224.737 17.8079 224.737 17.6471 224.737 17.4863C224.746 17.3255 224.754 17.1605 224.763 16.9912C224.78 16.8135 224.797 16.6273 224.813 16.4326C224.839 16.238 224.873 16.0221 224.915 15.7852L225.804 10.1611H224.128L223.811 9.64062L225.41 8.51074H226.07L226.146 8.06641C226.197 7.7194 226.248 7.4528 226.299 7.2666C226.358 7.0804 226.422 6.93652 226.489 6.83496C226.565 6.72493 226.646 6.6403 226.73 6.58105C226.815 6.52181 226.912 6.44987 227.022 6.36523L229.828 5.07031L230.184 5.3877C230.116 5.46387 230.048 5.59928 229.98 5.79395C229.913 5.96322 229.841 6.20443 229.765 6.51758C229.697 6.83073 229.621 7.24967 229.536 7.77441L229.409 8.51074H232.456L232.837 8.99316C232.752 9.11165 232.625 9.25977 232.456 9.4375C232.287 9.61523 232.109 9.79297 231.923 9.9707C231.737 10.1484 231.559 10.3092 231.39 10.4531C231.229 10.597 231.11 10.6901 231.034 10.7324C230.933 10.4954 230.729 10.3431 230.425 10.2754C230.129 10.1992 229.727 10.1611 229.219 10.1611H229.155L228.495 14.3379C228.47 14.4987 228.444 14.6722 228.419 14.8584C228.402 15.0361 228.385 15.2096 228.368 15.3789C228.36 15.5397 228.351 15.6921 228.343 15.8359C228.343 15.9798 228.343 16.0941 228.343 16.1787C228.343 16.7035 228.415 17.0716 228.559 17.2832C228.702 17.4863 228.893 17.5879 229.13 17.5879C229.426 17.5879 229.769 17.5244 230.158 17.3975C230.548 17.2705 231.06 17.0632 231.694 16.7754L232.075 17.8799ZM244.859 9.08203C244.859 9.36979 244.737 9.83952 244.491 10.4912C244.246 11.1344 243.911 11.9004 243.488 12.7891C243.074 13.6693 242.591 14.6426 242.041 15.709C241.499 16.7669 240.924 17.8503 240.314 18.959C239.722 20.0508 239.138 21.0495 238.562 21.9551C237.995 22.8607 237.411 23.6393 236.811 24.291C236.21 24.9427 235.579 25.4463 234.919 25.8018C234.267 26.1657 233.565 26.3477 232.812 26.3477C232.465 26.3477 232.113 26.2969 231.758 26.1953C231.402 26.1022 231.081 25.988 230.793 25.8525C230.505 25.7256 230.272 25.5859 230.095 25.4336C229.917 25.2897 229.828 25.167 229.828 25.0654C229.828 24.9385 229.909 24.7396 230.069 24.4688C230.23 24.1979 230.421 23.9186 230.641 23.6309C230.852 23.3516 231.068 23.0934 231.288 22.8564C231.5 22.6279 231.665 22.484 231.783 22.4248C231.986 22.6279 232.198 22.8099 232.418 22.9707C232.638 23.14 232.854 23.2796 233.065 23.3896C233.285 23.4997 233.497 23.5843 233.7 23.6436C233.903 23.7028 234.081 23.7324 234.233 23.7324C234.648 23.7324 235.084 23.5081 235.541 23.0596C236.007 22.6195 236.506 21.9805 237.039 21.1426C236.946 20.6432 236.832 20.0973 236.696 19.5049C236.569 18.904 236.43 18.2904 236.277 17.6641C236.125 17.0378 235.964 16.4157 235.795 15.7979C235.626 15.18 235.461 14.6003 235.3 14.0586C235.139 13.5169 234.982 13.0303 234.83 12.5986C234.678 12.1585 234.542 11.8115 234.424 11.5576C234.229 11.126 234.064 10.8467 233.929 10.7197C233.793 10.5843 233.654 10.5166 233.51 10.5166C233.434 10.5166 233.324 10.5335 233.18 10.5674C233.044 10.5928 232.909 10.6266 232.773 10.6689C232.613 10.7113 232.443 10.762 232.266 10.8213L231.986 9.84375C232.376 9.64909 232.786 9.4502 233.218 9.24707C233.649 9.04395 234.064 8.85775 234.462 8.68848C234.86 8.51921 235.215 8.38379 235.528 8.28223C235.85 8.1722 236.095 8.11719 236.265 8.11719C236.502 8.11719 236.713 8.23991 236.899 8.48535C237.086 8.73079 237.28 9.14551 237.483 9.72949C237.627 10.1357 237.78 10.6055 237.94 11.1387C238.11 11.6719 238.275 12.2474 238.436 12.8652C238.605 13.4746 238.77 14.1136 238.931 14.7822C239.1 15.4508 239.257 16.1237 239.4 16.8008C239.722 16.1491 240.022 15.5186 240.302 14.9092C240.581 14.2913 240.822 13.7243 241.025 13.208C241.229 12.6917 241.389 12.2389 241.508 11.8496C241.626 11.4603 241.686 11.1683 241.686 10.9736C241.686 10.5505 241.461 10.3262 241.013 10.3008C240.869 10.2839 240.721 10.3008 240.568 10.3516C240.424 10.4023 240.23 10.4827 239.984 10.5928L239.629 9.61523C239.934 9.4375 240.272 9.25977 240.645 9.08203C241.017 8.9043 241.389 8.74349 241.762 8.59961C242.134 8.45573 242.49 8.34147 242.828 8.25684C243.167 8.16374 243.454 8.11719 243.691 8.11719C243.835 8.11719 243.975 8.12988 244.11 8.15527C244.254 8.1722 244.381 8.21452 244.491 8.28223C244.601 8.34993 244.69 8.44727 244.758 8.57422C244.826 8.70117 244.859 8.87044 244.859 9.08203ZM259.573 13.9951C259.573 13.3519 259.518 12.7806 259.408 12.2812C259.307 11.7819 259.171 11.363 259.002 11.0244C258.833 10.6859 258.642 10.4277 258.431 10.25C258.219 10.0723 258.007 9.9834 257.796 9.9834C257.339 9.9834 256.954 10.123 256.641 10.4023C256.336 10.6732 256.086 11.0286 255.892 11.4688C255.705 11.9089 255.57 12.3997 255.485 12.9414C255.409 13.4831 255.371 14.0247 255.371 14.5664C255.371 15.1335 255.426 15.6667 255.536 16.166C255.655 16.6654 255.803 17.1055 255.98 17.4863C256.167 17.8587 256.374 18.1549 256.603 18.375C256.84 18.5951 257.072 18.7051 257.301 18.7051C257.724 18.7051 258.079 18.557 258.367 18.2607C258.663 17.9645 258.9 17.5879 259.078 17.1309C259.256 16.6738 259.383 16.1702 259.459 15.6201C259.535 15.0615 259.573 14.5199 259.573 13.9951ZM262.912 12.9033C262.912 13.4704 262.836 14.0459 262.684 14.6299C262.531 15.2054 262.315 15.7682 262.036 16.3184C261.765 16.86 261.435 17.3805 261.046 17.8799C260.657 18.3708 260.225 18.8109 259.751 19.2002C259.531 19.3779 259.281 19.5472 259.002 19.708C258.723 19.8688 258.435 20.0085 258.139 20.127C257.842 20.2539 257.546 20.3512 257.25 20.4189C256.962 20.4867 256.691 20.5205 256.438 20.5205C255.752 20.5205 255.134 20.3936 254.584 20.1396C254.042 19.8942 253.581 19.5557 253.2 19.124C252.819 18.6839 252.527 18.1676 252.324 17.5752C252.121 16.9743 252.02 16.3268 252.02 15.6328C252.02 14.4225 252.273 13.2884 252.781 12.2305C253.289 11.1641 254.11 10.1992 255.244 9.33594C255.464 9.16667 255.71 9.01009 255.98 8.86621C256.26 8.71387 256.548 8.58268 256.844 8.47266C257.148 8.36263 257.453 8.27799 257.758 8.21875C258.071 8.15104 258.376 8.11719 258.672 8.11719C259.332 8.11719 259.924 8.23568 260.449 8.47266C260.974 8.70964 261.418 9.03971 261.782 9.46289C262.146 9.88607 262.425 10.3896 262.62 10.9736C262.815 11.5576 262.912 12.2008 262.912 12.9033ZM276.699 2.31543C276.581 2.40007 276.428 2.51855 276.242 2.6709C276.064 2.81478 275.87 2.97135 275.658 3.14062C275.455 3.30143 275.243 3.4707 275.023 3.64844C274.803 3.81771 274.596 3.97005 274.401 4.10547C274.215 4.24089 274.046 4.35514 273.894 4.44824C273.75 4.53288 273.644 4.5752 273.576 4.5752C273.432 4.5752 273.288 4.49479 273.145 4.33398C273.009 4.17318 272.865 3.99544 272.713 3.80078C272.561 3.60612 272.4 3.42839 272.23 3.26758C272.061 3.10677 271.871 3.02637 271.659 3.02637C271.338 3.02637 271.067 3.18294 270.847 3.49609C270.627 3.80078 270.44 4.1901 270.288 4.66406C270.144 5.13802 270.026 5.66276 269.933 6.23828C269.848 6.8138 269.776 7.3724 269.717 7.91406L269.641 8.51074H272.764L273.145 8.99316C273.06 9.11165 272.929 9.25977 272.751 9.4375C272.582 9.61523 272.4 9.79297 272.205 9.9707C272.019 10.1484 271.837 10.3092 271.659 10.4531C271.49 10.597 271.363 10.6901 271.278 10.7324C271.185 10.4954 271.007 10.3431 270.745 10.2754C270.483 10.1992 270.098 10.1611 269.59 10.1611H269.45L268.6 17.5498C268.49 18.4808 268.231 19.3779 267.825 20.2412C267.427 21.113 266.949 21.9212 266.391 22.666C265.832 23.4193 265.223 24.0921 264.562 24.6846C263.911 25.2855 263.272 25.7764 262.646 26.1572L262.062 24.9766C262.485 24.7396 262.87 24.3841 263.217 23.9102C263.555 23.4447 263.852 22.9072 264.105 22.2979C264.368 21.6885 264.584 21.0326 264.753 20.3301C264.922 19.6276 265.045 18.9294 265.121 18.2354L266.048 10.1611H264.321L264.004 9.64062L265.794 8.51074H266.238C266.323 7.83366 266.45 7.18197 266.619 6.55566C266.788 5.92936 267.008 5.33691 267.279 4.77832C267.55 4.21973 267.88 3.69922 268.27 3.2168C268.667 2.72591 269.133 2.28158 269.666 1.88379C270.123 1.55371 270.601 1.27441 271.101 1.0459C271.608 0.817383 272.125 0.703125 272.649 0.703125C273.081 0.703125 273.508 0.779297 273.932 0.931641C274.363 1.08398 274.761 1.25749 275.125 1.45215C275.497 1.63835 275.819 1.82031 276.09 1.99805C276.369 2.16732 276.572 2.27311 276.699 2.31543ZM292.581 4.89258C292.598 4.91797 292.577 5.0026 292.518 5.14648C292.467 5.29036 292.391 5.4681 292.289 5.67969C292.188 5.88281 292.069 6.1071 291.934 6.35254C291.807 6.58952 291.675 6.81803 291.54 7.03809C291.405 7.25814 291.278 7.45703 291.159 7.63477C291.041 7.80404 290.943 7.91829 290.867 7.97754L289.979 7.74902C289.885 7.4528 289.763 7.16504 289.61 6.88574C289.458 6.60645 289.272 6.35677 289.052 6.13672C288.84 5.91667 288.595 5.74316 288.315 5.61621C288.036 5.48079 287.723 5.41309 287.376 5.41309C287.037 5.41309 286.729 5.45117 286.449 5.52734C286.178 5.60352 285.874 5.77279 285.535 6.03516C285.002 6.44987 284.558 6.97038 284.202 7.59668C283.855 8.22298 283.58 8.88314 283.377 9.57715C283.174 10.2627 283.03 10.9482 282.945 11.6338C282.861 12.3109 282.818 12.916 282.818 13.4492C282.818 14.3717 282.933 15.1335 283.161 15.7344C283.398 16.3353 283.69 16.8135 284.037 17.1689C284.384 17.5244 284.761 17.7741 285.167 17.918C285.582 18.0618 285.967 18.138 286.322 18.1465C286.525 18.1465 286.762 18.1253 287.033 18.083C287.304 18.0407 287.609 17.9561 287.947 17.8291C288.294 17.7021 288.684 17.5244 289.115 17.2959C289.555 17.0589 290.042 16.75 290.575 16.3691C290.618 16.3861 290.664 16.4411 290.715 16.5342C290.766 16.6273 290.812 16.7288 290.854 16.8389C290.905 16.9489 290.948 17.0505 290.981 17.1436C291.024 17.2367 291.053 17.2959 291.07 17.3213C290.495 17.8883 289.919 18.3665 289.344 18.7559C288.777 19.1367 288.227 19.4456 287.693 19.6826C287.16 19.9196 286.652 20.0889 286.17 20.1904C285.688 20.292 285.247 20.3428 284.85 20.3428C284.088 20.3428 283.373 20.2074 282.704 19.9365C282.035 19.6572 281.456 19.2552 280.965 18.7305C280.474 18.2057 280.085 17.5625 279.797 16.8008C279.518 16.0306 279.378 15.1546 279.378 14.1729C279.378 13.3773 279.463 12.569 279.632 11.748C279.801 10.9186 280.059 10.1146 280.406 9.33594C280.753 8.54883 281.189 7.80404 281.714 7.10156C282.247 6.39062 282.869 5.75163 283.58 5.18457C283.885 4.94759 284.232 4.73177 284.621 4.53711C285.01 4.34245 285.412 4.17741 285.827 4.04199C286.25 3.90658 286.678 3.80501 287.109 3.7373C287.541 3.66113 287.956 3.62305 288.354 3.62305C288.768 3.62305 289.187 3.6569 289.61 3.72461C290.034 3.79232 290.436 3.88542 290.816 4.00391C291.197 4.11393 291.54 4.24512 291.845 4.39746C292.149 4.5498 292.395 4.71484 292.581 4.89258ZM299.246 18.4512C298.848 18.6882 298.425 18.9294 297.977 19.1748C297.536 19.4202 297.101 19.6445 296.669 19.8477C296.246 20.0423 295.848 20.2031 295.476 20.3301C295.103 20.457 294.79 20.5205 294.536 20.5205C294.248 20.5205 293.999 20.3851 293.787 20.1143C293.576 19.8519 293.47 19.4922 293.47 19.0352C293.47 18.7812 293.495 18.4469 293.546 18.0322C293.605 17.609 293.677 17.1478 293.762 16.6484C293.846 16.1491 293.939 15.6328 294.041 15.0996C294.143 14.5664 294.236 14.0586 294.32 13.5762C294.405 13.0938 294.473 12.6579 294.523 12.2686C294.583 11.8708 294.612 11.5703 294.612 11.3672C294.612 11.1725 294.6 11.0202 294.574 10.9102C294.549 10.7917 294.515 10.707 294.473 10.6562C294.43 10.597 294.375 10.5589 294.308 10.542C294.24 10.5251 294.168 10.5166 294.092 10.5166C294.024 10.5166 293.927 10.5335 293.8 10.5674C293.673 10.5928 293.546 10.6266 293.419 10.6689C293.267 10.7113 293.11 10.762 292.949 10.8213L292.708 9.84375C293.063 9.68294 293.478 9.50521 293.952 9.31055C294.435 9.10742 294.909 8.91699 295.374 8.73926C295.848 8.56152 296.28 8.41341 296.669 8.29492C297.058 8.17643 297.342 8.11719 297.52 8.11719C297.757 8.11719 297.943 8.19759 298.078 8.3584C298.222 8.51921 298.294 8.79427 298.294 9.18359C298.294 9.42904 298.264 9.76335 298.205 10.1865C298.146 10.6097 298.07 11.0752 297.977 11.583C297.892 12.0824 297.799 12.6113 297.697 13.1699C297.596 13.7201 297.498 14.249 297.405 14.7568C297.321 15.2562 297.249 15.7174 297.189 16.1406C297.13 16.5638 297.101 16.8981 297.101 17.1436C297.101 17.4059 297.126 17.5964 297.177 17.7148C297.236 17.8333 297.338 17.8926 297.481 17.8926C297.608 17.8926 297.727 17.8841 297.837 17.8672C297.947 17.8503 298.057 17.8249 298.167 17.791C298.285 17.7572 298.408 17.7148 298.535 17.6641C298.662 17.6133 298.814 17.5498 298.992 17.4736L299.246 18.4512ZM299.525 3.97852C299.525 4.21549 299.47 4.46517 299.36 4.72754C299.259 4.98991 299.102 5.23112 298.891 5.45117C298.688 5.67122 298.434 5.85319 298.129 5.99707C297.824 6.14095 297.473 6.21289 297.075 6.21289C296.821 6.21289 296.601 6.18327 296.415 6.12402C296.229 6.05632 296.076 5.96745 295.958 5.85742C295.84 5.7474 295.751 5.62467 295.691 5.48926C295.641 5.35384 295.615 5.21419 295.615 5.07031C295.615 4.8418 295.666 4.59635 295.768 4.33398C295.878 4.07161 296.038 3.8304 296.25 3.61035C296.462 3.38184 296.715 3.19564 297.012 3.05176C297.316 2.89941 297.668 2.82324 298.065 2.82324C298.319 2.82324 298.539 2.8571 298.726 2.9248C298.912 2.99251 299.064 3.08138 299.183 3.19141C299.301 3.29297 299.386 3.41569 299.437 3.55957C299.496 3.69499 299.525 3.83464 299.525 3.97852ZM313.325 18.4512C312.944 18.6797 312.525 18.9167 312.068 19.1621C311.62 19.4076 311.175 19.6318 310.735 19.835C310.304 20.0296 309.897 20.1904 309.517 20.3174C309.144 20.4528 308.844 20.5205 308.615 20.5205C308.319 20.5205 308.065 20.3851 307.854 20.1143C307.65 19.8519 307.549 19.4922 307.549 19.0352C307.549 18.8828 307.574 18.6331 307.625 18.2861C307.676 17.9391 307.739 17.5413 307.815 17.0928C307.892 16.6442 307.972 16.1702 308.057 15.6709C308.141 15.1715 308.222 14.6934 308.298 14.2363C308.374 13.7708 308.438 13.3519 308.488 12.9795C308.539 12.6071 308.564 12.3236 308.564 12.1289C308.564 11.6719 308.526 11.3545 308.45 11.1768C308.382 10.999 308.226 10.9102 307.98 10.9102C307.87 10.9102 307.727 10.9355 307.549 10.9863C307.371 11.0371 307.176 11.126 306.965 11.2529C306.753 11.3799 306.529 11.5576 306.292 11.7861C306.063 12.0062 305.839 12.2897 305.619 12.6367C305.365 13.043 305.166 13.5296 305.022 14.0967C304.887 14.6637 304.747 15.3577 304.604 16.1787C304.536 16.5596 304.481 16.8896 304.438 17.1689C304.396 17.4398 304.362 17.6852 304.337 17.9053C304.32 18.1169 304.307 18.3158 304.299 18.502C304.299 18.6797 304.303 18.8617 304.312 19.0479C304.235 19.0902 304.113 19.1494 303.943 19.2256C303.783 19.3018 303.592 19.3906 303.372 19.4922C303.16 19.5853 302.936 19.6868 302.699 19.7969C302.462 19.8984 302.234 19.9958 302.014 20.0889C301.802 20.182 301.612 20.2666 301.442 20.3428C301.282 20.4274 301.167 20.4867 301.1 20.5205L300.554 20C300.731 19.1536 300.896 18.2861 301.049 17.3975C301.21 16.5003 301.349 15.654 301.468 14.8584C301.595 14.0544 301.692 13.3434 301.76 12.7256C301.836 12.0993 301.874 11.638 301.874 11.3418C301.874 11.1471 301.861 10.9948 301.836 10.8848C301.819 10.7663 301.789 10.6816 301.747 10.6309C301.705 10.5716 301.654 10.5335 301.595 10.5166C301.535 10.4997 301.468 10.4912 301.392 10.4912C301.315 10.4912 301.21 10.5081 301.074 10.542C300.939 10.5758 300.803 10.6139 300.668 10.6562C300.516 10.707 300.346 10.762 300.16 10.8213L299.906 9.81836C300.143 9.7168 300.414 9.60254 300.719 9.47559C301.032 9.34863 301.354 9.22591 301.684 9.10742C302.014 8.98047 302.344 8.85775 302.674 8.73926C303.004 8.62077 303.309 8.51497 303.588 8.42188C303.876 8.32878 304.121 8.25684 304.324 8.20605C304.536 8.14681 304.688 8.11719 304.781 8.11719C304.9 8.11719 304.997 8.13835 305.073 8.18066C305.158 8.21452 305.221 8.28223 305.264 8.38379C305.314 8.48535 305.348 8.62923 305.365 8.81543C305.391 9.00163 305.403 9.24707 305.403 9.55176C305.403 9.72949 305.399 9.90299 305.391 10.0723C305.382 10.2331 305.365 10.4193 305.34 10.6309C306.262 9.78451 307.168 9.15397 308.057 8.73926C308.945 8.32454 309.771 8.11719 310.532 8.11719C310.795 8.11719 311.032 8.14258 311.243 8.19336C311.455 8.24414 311.632 8.34147 311.776 8.48535C311.929 8.62077 312.043 8.81966 312.119 9.08203C312.195 9.33594 312.233 9.66602 312.233 10.0723C312.233 10.3685 312.208 10.7155 312.157 11.1133C312.106 11.5111 312.039 11.9342 311.954 12.3828C311.878 12.8229 311.793 13.2757 311.7 13.7412C311.607 14.2067 311.518 14.651 311.434 15.0742C311.357 15.4974 311.294 15.891 311.243 16.2549C311.192 16.6104 311.167 16.9066 311.167 17.1436C311.167 17.4313 311.205 17.6302 311.281 17.7402C311.357 17.8418 311.472 17.8926 311.624 17.8926C311.726 17.8926 311.819 17.8841 311.903 17.8672C311.988 17.8503 312.077 17.8249 312.17 17.791C312.263 17.7572 312.369 17.7148 312.487 17.6641C312.614 17.6133 312.767 17.5498 312.944 17.4736L313.325 18.4512ZM325.475 9.52637C325.297 9.72103 325.073 9.94531 324.802 10.1992C324.539 10.4531 324.269 10.6943 323.989 10.9229C323.718 11.1514 323.46 11.346 323.215 11.5068C322.969 11.6592 322.775 11.7354 322.631 11.7354C322.479 11.7354 322.33 11.6507 322.187 11.4814C322.043 11.3037 321.89 11.1133 321.729 10.9102C321.577 10.707 321.404 10.5208 321.209 10.3516C321.023 10.1738 320.811 10.085 320.574 10.085C320.151 10.085 319.774 10.2288 319.444 10.5166C319.123 10.7959 318.848 11.1683 318.619 11.6338C318.399 12.0908 318.23 12.6113 318.111 13.1953C317.993 13.7708 317.934 14.3548 317.934 14.9473C317.934 16.0475 318.082 16.8981 318.378 17.499C318.674 18.0999 319.059 18.4004 319.533 18.4004C320.041 18.4004 320.617 18.2184 321.26 17.8545C321.911 17.4821 322.694 16.9235 323.608 16.1787C323.642 16.221 323.693 16.293 323.761 16.3945C323.828 16.4961 323.9 16.6019 323.977 16.7119C324.053 16.8219 324.12 16.9235 324.18 17.0166C324.247 17.1097 324.29 17.1732 324.307 17.207C323.646 17.8079 323.037 18.32 322.479 18.7432C321.92 19.1663 321.395 19.5091 320.904 19.7715C320.422 20.0339 319.965 20.2243 319.533 20.3428C319.11 20.4613 318.695 20.5205 318.289 20.5205C317.908 20.5205 317.498 20.4486 317.058 20.3047C316.626 20.1608 316.224 19.9111 315.852 19.5557C315.479 19.2002 315.17 18.7262 314.925 18.1338C314.679 17.5413 314.557 16.8008 314.557 15.9121C314.557 15.3451 314.616 14.7738 314.734 14.1982C314.853 13.6143 315.043 13.0514 315.306 12.5098C315.576 11.9596 315.924 11.4349 316.347 10.9355C316.778 10.4362 317.307 9.97917 317.934 9.56445C318.171 9.41211 318.45 9.2513 318.771 9.08203C319.093 8.9043 319.436 8.74772 319.8 8.6123C320.172 8.46842 320.557 8.34993 320.955 8.25684C321.353 8.16374 321.746 8.11719 322.136 8.11719C322.508 8.11719 322.842 8.17643 323.139 8.29492C323.435 8.40495 323.71 8.54036 323.964 8.70117C324.226 8.85352 324.476 9.01009 324.713 9.1709C324.958 9.32324 325.212 9.44173 325.475 9.52637ZM332.178 18.4512C331.78 18.6882 331.357 18.9294 330.908 19.1748C330.468 19.4202 330.032 19.6445 329.601 19.8477C329.177 20.0423 328.78 20.2031 328.407 20.3301C328.035 20.457 327.722 20.5205 327.468 20.5205C327.18 20.5205 326.93 20.3851 326.719 20.1143C326.507 19.8519 326.401 19.4922 326.401 19.0352C326.401 18.7812 326.427 18.4469 326.478 18.0322C326.537 17.609 326.609 17.1478 326.693 16.6484C326.778 16.1491 326.871 15.6328 326.973 15.0996C327.074 14.5664 327.167 14.0586 327.252 13.5762C327.337 13.0938 327.404 12.6579 327.455 12.2686C327.514 11.8708 327.544 11.5703 327.544 11.3672C327.544 11.1725 327.531 11.0202 327.506 10.9102C327.48 10.7917 327.447 10.707 327.404 10.6562C327.362 10.597 327.307 10.5589 327.239 10.542C327.172 10.5251 327.1 10.5166 327.023 10.5166C326.956 10.5166 326.858 10.5335 326.731 10.5674C326.604 10.5928 326.478 10.6266 326.351 10.6689C326.198 10.7113 326.042 10.762 325.881 10.8213L325.64 9.84375C325.995 9.68294 326.41 9.50521 326.884 9.31055C327.366 9.10742 327.84 8.91699 328.306 8.73926C328.78 8.56152 329.211 8.41341 329.601 8.29492C329.99 8.17643 330.273 8.11719 330.451 8.11719C330.688 8.11719 330.874 8.19759 331.01 8.3584C331.154 8.51921 331.226 8.79427 331.226 9.18359C331.226 9.42904 331.196 9.76335 331.137 10.1865C331.077 10.6097 331.001 11.0752 330.908 11.583C330.824 12.0824 330.73 12.6113 330.629 13.1699C330.527 13.7201 330.43 14.249 330.337 14.7568C330.252 15.2562 330.18 15.7174 330.121 16.1406C330.062 16.5638 330.032 16.8981 330.032 17.1436C330.032 17.4059 330.058 17.5964 330.108 17.7148C330.168 17.8333 330.269 17.8926 330.413 17.8926C330.54 17.8926 330.659 17.8841 330.769 17.8672C330.879 17.8503 330.989 17.8249 331.099 17.791C331.217 17.7572 331.34 17.7148 331.467 17.6641C331.594 17.6133 331.746 17.5498 331.924 17.4736L332.178 18.4512ZM332.457 3.97852C332.457 4.21549 332.402 4.46517 332.292 4.72754C332.19 4.98991 332.034 5.23112 331.822 5.45117C331.619 5.67122 331.365 5.85319 331.061 5.99707C330.756 6.14095 330.405 6.21289 330.007 6.21289C329.753 6.21289 329.533 6.18327 329.347 6.12402C329.16 6.05632 329.008 5.96745 328.89 5.85742C328.771 5.7474 328.682 5.62467 328.623 5.48926C328.572 5.35384 328.547 5.21419 328.547 5.07031C328.547 4.8418 328.598 4.59635 328.699 4.33398C328.809 4.07161 328.97 3.8304 329.182 3.61035C329.393 3.38184 329.647 3.19564 329.943 3.05176C330.248 2.89941 330.599 2.82324 330.997 2.82324C331.251 2.82324 331.471 2.8571 331.657 2.9248C331.843 2.99251 331.996 3.08138 332.114 3.19141C332.233 3.29297 332.317 3.41569 332.368 3.55957C332.427 3.69499 332.457 3.83464 332.457 3.97852ZM346.257 18.4512C345.876 18.6797 345.457 18.9167 345 19.1621C344.551 19.4076 344.107 19.6318 343.667 19.835C343.235 20.0296 342.829 20.1904 342.448 20.3174C342.076 20.4528 341.775 20.5205 341.547 20.5205C341.251 20.5205 340.997 20.3851 340.785 20.1143C340.582 19.8519 340.48 19.4922 340.48 19.0352C340.48 18.8828 340.506 18.6331 340.557 18.2861C340.607 17.9391 340.671 17.5413 340.747 17.0928C340.823 16.6442 340.904 16.1702 340.988 15.6709C341.073 15.1715 341.153 14.6934 341.229 14.2363C341.306 13.7708 341.369 13.3519 341.42 12.9795C341.471 12.6071 341.496 12.3236 341.496 12.1289C341.496 11.6719 341.458 11.3545 341.382 11.1768C341.314 10.999 341.158 10.9102 340.912 10.9102C340.802 10.9102 340.658 10.9355 340.48 10.9863C340.303 11.0371 340.108 11.126 339.896 11.2529C339.685 11.3799 339.461 11.5576 339.224 11.7861C338.995 12.0062 338.771 12.2897 338.551 12.6367C338.297 13.043 338.098 13.5296 337.954 14.0967C337.819 14.6637 337.679 15.3577 337.535 16.1787C337.467 16.5596 337.412 16.8896 337.37 17.1689C337.328 17.4398 337.294 17.6852 337.269 17.9053C337.252 18.1169 337.239 18.3158 337.23 18.502C337.23 18.6797 337.235 18.8617 337.243 19.0479C337.167 19.0902 337.044 19.1494 336.875 19.2256C336.714 19.3018 336.524 19.3906 336.304 19.4922C336.092 19.5853 335.868 19.6868 335.631 19.7969C335.394 19.8984 335.165 19.9958 334.945 20.0889C334.734 20.182 334.543 20.2666 334.374 20.3428C334.213 20.4274 334.099 20.4867 334.031 20.5205L333.485 20C333.663 19.1536 333.828 18.2861 333.98 17.3975C334.141 16.5003 334.281 15.654 334.399 14.8584C334.526 14.0544 334.624 13.3434 334.691 12.7256C334.768 12.0993 334.806 11.638 334.806 11.3418C334.806 11.1471 334.793 10.9948 334.768 10.8848C334.751 10.7663 334.721 10.6816 334.679 10.6309C334.636 10.5716 334.586 10.5335 334.526 10.5166C334.467 10.4997 334.399 10.4912 334.323 10.4912C334.247 10.4912 334.141 10.5081 334.006 10.542C333.87 10.5758 333.735 10.6139 333.6 10.6562C333.447 10.707 333.278 10.762 333.092 10.8213L332.838 9.81836C333.075 9.7168 333.346 9.60254 333.65 9.47559C333.964 9.34863 334.285 9.22591 334.615 9.10742C334.945 8.98047 335.275 8.85775 335.605 8.73926C335.936 8.62077 336.24 8.51497 336.52 8.42188C336.807 8.32878 337.053 8.25684 337.256 8.20605C337.467 8.14681 337.62 8.11719 337.713 8.11719C337.831 8.11719 337.929 8.13835 338.005 8.18066C338.09 8.21452 338.153 8.28223 338.195 8.38379C338.246 8.48535 338.28 8.62923 338.297 8.81543C338.322 9.00163 338.335 9.24707 338.335 9.55176C338.335 9.72949 338.331 9.90299 338.322 10.0723C338.314 10.2331 338.297 10.4193 338.271 10.6309C339.194 9.78451 340.1 9.15397 340.988 8.73926C341.877 8.32454 342.702 8.11719 343.464 8.11719C343.726 8.11719 343.963 8.14258 344.175 8.19336C344.386 8.24414 344.564 8.34147 344.708 8.48535C344.86 8.62077 344.975 8.81966 345.051 9.08203C345.127 9.33594 345.165 9.66602 345.165 10.0723C345.165 10.3685 345.14 10.7155 345.089 11.1133C345.038 11.5111 344.97 11.9342 344.886 12.3828C344.81 12.8229 344.725 13.2757 344.632 13.7412C344.539 14.2067 344.45 14.651 344.365 15.0742C344.289 15.4974 344.226 15.891 344.175 16.2549C344.124 16.6104 344.099 16.9066 344.099 17.1436C344.099 17.4313 344.137 17.6302 344.213 17.7402C344.289 17.8418 344.403 17.8926 344.556 17.8926C344.657 17.8926 344.75 17.8841 344.835 17.8672C344.92 17.8503 345.008 17.8249 345.102 17.791C345.195 17.7572 345.3 17.7148 345.419 17.6641C345.546 17.6133 345.698 17.5498 345.876 17.4736L346.257 18.4512ZM360.272 18.4512C359.892 18.6797 359.473 18.9167 359.016 19.1621C358.567 19.4076 358.123 19.6318 357.683 19.835C357.251 20.0296 356.845 20.1904 356.464 20.3174C356.091 20.4528 355.791 20.5205 355.562 20.5205C355.266 20.5205 355.012 20.3851 354.801 20.1143C354.598 19.8519 354.496 19.4922 354.496 19.0352C354.496 18.8828 354.521 18.6331 354.572 18.2861C354.623 17.9391 354.687 17.5413 354.763 17.0928C354.839 16.6442 354.919 16.1702 355.004 15.6709C355.089 15.1715 355.169 14.6934 355.245 14.2363C355.321 13.7708 355.385 13.3519 355.436 12.9795C355.486 12.6071 355.512 12.3236 355.512 12.1289C355.512 11.6719 355.474 11.3545 355.397 11.1768C355.33 10.999 355.173 10.9102 354.928 10.9102C354.818 10.9102 354.674 10.9355 354.496 10.9863C354.318 11.0371 354.124 11.126 353.912 11.2529C353.701 11.3799 353.476 11.5576 353.239 11.7861C353.011 12.0062 352.786 12.2897 352.566 12.6367C352.312 13.043 352.114 13.5296 351.97 14.0967C351.834 14.6637 351.695 15.3577 351.551 16.1787C351.483 16.5596 351.428 16.8896 351.386 17.1689C351.343 17.4398 351.31 17.6852 351.284 17.9053C351.267 18.1169 351.255 18.3158 351.246 18.502C351.246 18.6797 351.25 18.8617 351.259 19.0479C351.183 19.0902 351.06 19.1494 350.891 19.2256C350.73 19.3018 350.539 19.3906 350.319 19.4922C350.108 19.5853 349.883 19.6868 349.646 19.7969C349.41 19.8984 349.181 19.9958 348.961 20.0889C348.749 20.182 348.559 20.2666 348.39 20.3428C348.229 20.4274 348.115 20.4867 348.047 20.5205L347.501 20C347.679 19.1536 347.844 18.2861 347.996 17.3975C348.157 16.5003 348.297 15.654 348.415 14.8584C348.542 14.0544 348.639 13.3434 348.707 12.7256C348.783 12.0993 348.821 11.638 348.821 11.3418C348.821 11.1471 348.809 10.9948 348.783 10.8848C348.766 10.7663 348.737 10.6816 348.694 10.6309C348.652 10.5716 348.601 10.5335 348.542 10.5166C348.483 10.4997 348.415 10.4912 348.339 10.4912C348.263 10.4912 348.157 10.5081 348.021 10.542C347.886 10.5758 347.751 10.6139 347.615 10.6562C347.463 10.707 347.294 10.762 347.107 10.8213L346.854 9.81836C347.09 9.7168 347.361 9.60254 347.666 9.47559C347.979 9.34863 348.301 9.22591 348.631 9.10742C348.961 8.98047 349.291 8.85775 349.621 8.73926C349.951 8.62077 350.256 8.51497 350.535 8.42188C350.823 8.32878 351.068 8.25684 351.271 8.20605C351.483 8.14681 351.635 8.11719 351.729 8.11719C351.847 8.11719 351.944 8.13835 352.021 8.18066C352.105 8.21452 352.169 8.28223 352.211 8.38379C352.262 8.48535 352.296 8.62923 352.312 8.81543C352.338 9.00163 352.351 9.24707 352.351 9.55176C352.351 9.72949 352.346 9.90299 352.338 10.0723C352.329 10.2331 352.312 10.4193 352.287 10.6309C353.21 9.78451 354.115 9.15397 355.004 8.73926C355.893 8.32454 356.718 8.11719 357.479 8.11719C357.742 8.11719 357.979 8.14258 358.19 8.19336C358.402 8.24414 358.58 8.34147 358.724 8.48535C358.876 8.62077 358.99 8.81966 359.066 9.08203C359.143 9.33594 359.181 9.66602 359.181 10.0723C359.181 10.3685 359.155 10.7155 359.104 11.1133C359.054 11.5111 358.986 11.9342 358.901 12.3828C358.825 12.8229 358.741 13.2757 358.647 13.7412C358.554 14.2067 358.465 14.651 358.381 15.0742C358.305 15.4974 358.241 15.891 358.19 16.2549C358.14 16.6104 358.114 16.9066 358.114 17.1436C358.114 17.4313 358.152 17.6302 358.229 17.7402C358.305 17.8418 358.419 17.8926 358.571 17.8926C358.673 17.8926 358.766 17.8841 358.851 17.8672C358.935 17.8503 359.024 17.8249 359.117 17.791C359.21 17.7572 359.316 17.7148 359.435 17.6641C359.562 17.6133 359.714 17.5498 359.892 17.4736L360.272 18.4512ZM367.852 15.4297C367.894 15.0827 367.945 14.7061 368.004 14.2998C368.063 13.8936 368.122 13.4873 368.182 13.0811C368.249 12.6748 368.313 12.2855 368.372 11.9131C368.44 11.5407 368.499 11.2106 368.55 10.9229C368.313 10.6943 368.072 10.4954 367.826 10.3262C367.581 10.1569 367.348 10.0765 367.128 10.085C366.781 10.0934 366.468 10.1781 366.188 10.3389C365.909 10.4997 365.66 10.7155 365.439 10.9863C365.228 11.2487 365.042 11.5534 364.881 11.9004C364.729 12.2474 364.602 12.6113 364.5 12.9922C364.398 13.3646 364.322 13.7412 364.271 14.1221C364.229 14.5029 364.208 14.8584 364.208 15.1885C364.208 15.637 364.238 16.0264 364.297 16.3564C364.356 16.6781 364.437 16.9447 364.538 17.1562C364.64 17.3678 364.75 17.5244 364.868 17.626C364.995 17.7191 365.122 17.7656 365.249 17.7656C365.359 17.7656 365.494 17.7275 365.655 17.6514C365.816 17.5752 366.002 17.4482 366.214 17.2705C366.434 17.0843 366.679 16.8431 366.95 16.5469C367.221 16.2422 367.521 15.8698 367.852 15.4297ZM373.298 18.502C372.942 18.7559 372.578 19.0055 372.206 19.251C371.842 19.4964 371.495 19.7122 371.165 19.8984C370.835 20.0846 370.535 20.2327 370.264 20.3428C370.001 20.4613 369.794 20.5205 369.642 20.5205C369.506 20.5205 369.341 20.474 369.146 20.3809C368.96 20.2962 368.774 20.1481 368.588 19.9365C368.41 19.7249 368.241 19.4456 368.08 19.0986C367.928 18.7432 367.822 18.2988 367.763 17.7656C367.483 18.138 367.187 18.4935 366.874 18.832C366.569 19.1621 366.252 19.4541 365.922 19.708C365.6 19.9535 365.27 20.1481 364.932 20.292C364.593 20.4443 364.25 20.5205 363.903 20.5205C363.59 20.5205 363.26 20.4401 362.913 20.2793C362.566 20.1185 362.244 19.8646 361.948 19.5176C361.66 19.1621 361.419 18.7093 361.225 18.1592C361.038 17.6006 360.945 16.9235 360.945 16.1279C360.945 15.4593 361.03 14.8076 361.199 14.1729C361.377 13.5296 361.627 12.916 361.948 12.332C362.27 11.748 362.663 11.2021 363.129 10.6943C363.603 10.1781 364.14 9.7168 364.741 9.31055C365.198 8.9974 365.753 8.72233 366.404 8.48535C367.056 8.23991 367.771 8.11719 368.55 8.11719C368.905 8.11719 369.257 8.19759 369.604 8.3584C369.951 8.51074 370.281 8.68424 370.594 8.87891C370.915 8.73503 371.229 8.60384 371.533 8.48535C371.846 8.3584 372.121 8.23568 372.358 8.11719L372.803 9.06934C372.659 9.18783 372.536 9.29362 372.435 9.38672C372.341 9.47982 372.261 9.58984 372.193 9.7168C372.126 9.83529 372.062 9.9834 372.003 10.1611C371.952 10.3389 371.897 10.5716 371.838 10.8594C371.711 11.4688 371.597 12.0485 371.495 12.5986C371.402 13.1403 371.322 13.6396 371.254 14.0967C371.195 14.5537 371.148 14.9515 371.114 15.29C371.08 15.6286 371.063 15.891 371.063 16.0771C371.063 16.3057 371.08 16.5299 371.114 16.75C371.148 16.9616 371.195 17.1562 371.254 17.334C371.322 17.5033 371.394 17.6387 371.47 17.7402C371.554 17.8418 371.647 17.8926 371.749 17.8926C371.918 17.8926 372.096 17.8714 372.282 17.8291C372.477 17.7783 372.743 17.681 373.082 17.5371L373.298 18.502ZM382.083 17.8799C381.601 18.2607 381.118 18.6162 380.636 18.9463C380.153 19.2679 379.688 19.5472 379.239 19.7842C378.799 20.0127 378.393 20.1904 378.021 20.3174C377.657 20.4528 377.348 20.5205 377.094 20.5205C376.823 20.5205 376.548 20.457 376.269 20.3301C375.989 20.2031 375.735 20.0296 375.507 19.8096C375.287 19.5811 375.105 19.3102 374.961 18.9971C374.817 18.6839 374.745 18.3411 374.745 17.9688C374.745 17.8079 374.745 17.6471 374.745 17.4863C374.754 17.3255 374.762 17.1605 374.771 16.9912C374.787 16.8135 374.804 16.6273 374.821 16.4326C374.847 16.238 374.881 16.0221 374.923 15.7852L375.812 10.1611H374.136L373.818 9.64062L375.418 8.51074H376.078L376.154 8.06641C376.205 7.7194 376.256 7.4528 376.307 7.2666C376.366 7.0804 376.429 6.93652 376.497 6.83496C376.573 6.72493 376.654 6.6403 376.738 6.58105C376.823 6.52181 376.92 6.44987 377.03 6.36523L379.836 5.07031L380.191 5.3877C380.124 5.46387 380.056 5.59928 379.988 5.79395C379.921 5.96322 379.849 6.20443 379.772 6.51758C379.705 6.83073 379.629 7.24967 379.544 7.77441L379.417 8.51074H382.464L382.845 8.99316C382.76 9.11165 382.633 9.25977 382.464 9.4375C382.295 9.61523 382.117 9.79297 381.931 9.9707C381.744 10.1484 381.567 10.3092 381.397 10.4531C381.237 10.597 381.118 10.6901 381.042 10.7324C380.94 10.4954 380.737 10.3431 380.433 10.2754C380.136 10.1992 379.734 10.1611 379.227 10.1611H379.163L378.503 14.3379C378.478 14.4987 378.452 14.6722 378.427 14.8584C378.41 15.0361 378.393 15.2096 378.376 15.3789C378.368 15.5397 378.359 15.6921 378.351 15.8359C378.351 15.9798 378.351 16.0941 378.351 16.1787C378.351 16.7035 378.423 17.0716 378.566 17.2832C378.71 17.4863 378.901 17.5879 379.138 17.5879C379.434 17.5879 379.777 17.5244 380.166 17.3975C380.555 17.2705 381.067 17.0632 381.702 16.7754L382.083 17.8799ZM389.561 18.4512C389.163 18.6882 388.74 18.9294 388.291 19.1748C387.851 19.4202 387.415 19.6445 386.983 19.8477C386.56 20.0423 386.162 20.2031 385.79 20.3301C385.418 20.457 385.104 20.5205 384.851 20.5205C384.563 20.5205 384.313 20.3851 384.102 20.1143C383.89 19.8519 383.784 19.4922 383.784 19.0352C383.784 18.7812 383.81 18.4469 383.86 18.0322C383.92 17.609 383.992 17.1478 384.076 16.6484C384.161 16.1491 384.254 15.6328 384.355 15.0996C384.457 14.5664 384.55 14.0586 384.635 13.5762C384.719 13.0938 384.787 12.6579 384.838 12.2686C384.897 11.8708 384.927 11.5703 384.927 11.3672C384.927 11.1725 384.914 11.0202 384.889 10.9102C384.863 10.7917 384.829 10.707 384.787 10.6562C384.745 10.597 384.69 10.5589 384.622 10.542C384.554 10.5251 384.482 10.5166 384.406 10.5166C384.339 10.5166 384.241 10.5335 384.114 10.5674C383.987 10.5928 383.86 10.6266 383.733 10.6689C383.581 10.7113 383.424 10.762 383.264 10.8213L383.022 9.84375C383.378 9.68294 383.793 9.50521 384.267 9.31055C384.749 9.10742 385.223 8.91699 385.688 8.73926C386.162 8.56152 386.594 8.41341 386.983 8.29492C387.373 8.17643 387.656 8.11719 387.834 8.11719C388.071 8.11719 388.257 8.19759 388.393 8.3584C388.536 8.51921 388.608 8.79427 388.608 9.18359C388.608 9.42904 388.579 9.76335 388.52 10.1865C388.46 10.6097 388.384 11.0752 388.291 11.583C388.206 12.0824 388.113 12.6113 388.012 13.1699C387.91 13.7201 387.813 14.249 387.72 14.7568C387.635 15.2562 387.563 15.7174 387.504 16.1406C387.445 16.5638 387.415 16.8981 387.415 17.1436C387.415 17.4059 387.44 17.5964 387.491 17.7148C387.55 17.8333 387.652 17.8926 387.796 17.8926C387.923 17.8926 388.041 17.8841 388.151 17.8672C388.261 17.8503 388.371 17.8249 388.481 17.791C388.6 17.7572 388.723 17.7148 388.85 17.6641C388.977 17.6133 389.129 17.5498 389.307 17.4736L389.561 18.4512ZM389.84 3.97852C389.84 4.21549 389.785 4.46517 389.675 4.72754C389.573 4.98991 389.417 5.23112 389.205 5.45117C389.002 5.67122 388.748 5.85319 388.443 5.99707C388.139 6.14095 387.787 6.21289 387.39 6.21289C387.136 6.21289 386.916 6.18327 386.729 6.12402C386.543 6.05632 386.391 5.96745 386.272 5.85742C386.154 5.7474 386.065 5.62467 386.006 5.48926C385.955 5.35384 385.93 5.21419 385.93 5.07031C385.93 4.8418 385.98 4.59635 386.082 4.33398C386.192 4.07161 386.353 3.8304 386.564 3.61035C386.776 3.38184 387.03 3.19564 387.326 3.05176C387.631 2.89941 387.982 2.82324 388.38 2.82324C388.634 2.82324 388.854 2.8571 389.04 2.9248C389.226 2.99251 389.379 3.08138 389.497 3.19141C389.616 3.29297 389.7 3.41569 389.751 3.55957C389.81 3.69499 389.84 3.83464 389.84 3.97852Z" fill="white"/>
</svg>
