<svg width="1440" height="755" viewBox="0 0 1440 755" fill="none" xmlns="http://www.w3.org/2000/svg">
<rect x="152" width="1133" height="611.605" fill="#D9D9D9"/>
<path d="M799.11 305.802L679.028 379.997L679.028 231.608L799.11 305.802Z" fill="#A1A1A1"/>
<rect x="203" y="627" width="237" height="127.935" fill="#D9D9D9"/>
<path d="M338.362 690.968L313.243 706.488L313.243 675.448L338.362 690.968Z" fill="#A1A1A1"/>
<rect x="453" y="627" width="237" height="127.935" fill="#D9D9D9"/>
<path d="M588.362 690.968L563.243 706.488L563.243 675.448L588.362 690.968Z" fill="#A1A1A1"/>
<rect x="703" y="627" width="237" height="127.935" fill="#D9D9D9"/>
<path d="M838.362 690.968L813.243 706.488L813.243 675.448L838.362 690.968Z" fill="#A1A1A1"/>
<rect x="953" y="627" width="237" height="127.935" fill="#D9D9D9"/>
<path d="M1088.36 690.968L1063.24 706.488L1063.24 675.448L1088.36 690.968Z" fill="#A1A1A1"/>
<rect x="1203" y="627" width="237" height="127.935" fill="#D9D9D9"/>
<path d="M1338.36 690.968L1313.24 706.488L1313.24 675.448L1338.36 690.968Z" fill="#A1A1A1"/>
<rect x="-47" y="627" width="237" height="127.935" fill="#D9D9D9"/>
<path d="M88.3618 690.968L63.2431 706.488L63.2431 675.448L88.3618 690.968Z" fill="#A1A1A1"/>
</svg>
